{"glyphs":{"0":{"ha":694,"x_min":31,"x_max":663,"o":"m 663 478 q 631 241 663 357 q 522 54 598 124 q 346 -16 445 -16 q 179 49 254 -16 q 68 231 104 114 q 31 477 31 347 q 120 832 31 694 q 347 970 209 970 q 576 836 488 970 q 663 478 663 703 m 449 477 l 448 621 q 444 762 448 696 q 433 854 439 827 q 415 894 426 881 q 388 916 405 907 q 350 924 371 924 q 262 843 279 924 q 245 378 245 761 q 269 81 245 136 q 350 25 292 25 q 432 96 415 25 q 449 477 449 168 z "},"1":{"ha":694,"x_min":85,"x_max":591,"o":"m 452 970 l 452 154 q 476 53 452 80 q 576 25 500 25 l 591 25 l 591 0 l 98 0 l 98 25 l 140 25 q 222 48 195 25 q 249 138 249 71 l 249 724 q 177 814 249 814 q 98 791 147 814 l 85 814 l 429 970 l 452 970 z "},"2":{"ha":694,"x_min":28,"x_max":663,"o":"m 663 276 l 611 0 l 28 0 l 28 18 q 71 67 34 26 q 322 385 236 248 q 409 627 409 522 q 361 763 409 711 q 239 815 313 815 q 68 696 119 815 l 44 705 q 340 970 114 970 q 537 900 458 970 q 615 724 615 831 q 528 500 615 627 q 241 186 441 373 l 486 186 q 637 276 614 186 l 663 276 z "},"3":{"ha":694,"x_min":28,"x_max":660,"o":"m 226 507 q 371 577 321 524 q 421 694 421 630 q 376 801 421 759 q 264 844 332 844 q 83 731 145 844 l 58 739 q 372 970 153 970 q 544 911 477 970 q 611 769 611 853 q 479 585 611 654 q 605 493 550 558 q 660 334 660 427 q 546 89 660 194 q 247 -16 432 -16 q 83 16 137 -16 q 28 96 28 48 q 50 147 28 126 q 100 168 72 168 q 199 117 140 168 q 355 41 289 41 q 456 84 411 41 q 501 195 501 127 q 422 377 501 296 q 226 480 342 458 l 226 507 z "},"4":{"ha":694,"x_min":20,"x_max":667,"o":"m 583 970 l 583 357 l 667 357 l 667 205 l 583 205 l 583 0 l 382 0 l 382 205 l 20 205 l 20 357 l 500 970 l 583 970 m 382 357 l 382 732 l 87 357 l 382 357 z "},"5":{"ha":694,"x_min":33,"x_max":660,"o":"m 660 954 l 586 770 l 199 770 l 166 680 q 529 576 406 675 q 652 327 652 477 q 531 77 652 170 q 260 -16 410 -16 q 97 14 162 -16 q 33 95 33 43 q 54 146 33 123 q 105 169 76 169 q 235 114 144 169 q 387 54 334 54 q 491 100 448 54 q 534 205 534 146 q 417 398 534 319 q 100 477 299 477 q 35 476 78 477 l 207 954 l 660 954 z "},"6":{"ha":694,"x_min":35,"x_max":669,"o":"m 669 970 l 669 943 q 268 566 332 879 q 339 595 302 585 q 413 604 375 604 q 589 529 511 604 q 667 319 667 454 q 579 77 667 171 q 361 -16 492 -16 q 129 96 222 -16 q 35 380 35 208 q 195 772 35 593 q 669 970 354 951 m 259 508 q 252 391 252 458 q 284 116 252 208 q 378 24 315 24 q 445 69 423 24 q 467 203 467 114 q 433 450 467 372 q 329 529 399 529 q 293 524 311 529 q 259 508 276 519 z "},"7":{"ha":694,"x_min":20,"x_max":669,"o":"m 669 954 l 349 -16 l 239 -16 l 498 766 l 256 766 q 46 660 88 766 l 20 660 l 90 954 l 669 954 z "},"8":{"ha":694,"x_min":32,"x_max":663,"o":"m 475 539 q 663 252 663 406 q 575 62 663 140 q 336 -16 488 -16 q 109 59 186 -16 q 32 223 32 134 q 231 458 32 380 q 80 611 112 549 q 48 732 48 673 q 139 906 48 842 q 365 970 230 970 q 563 908 483 970 q 644 755 644 847 q 475 539 644 626 m 425 576 q 473 752 473 625 q 443 883 473 840 q 354 927 414 927 q 268 891 303 927 q 233 806 233 856 q 387 603 233 711 q 425 576 419 580 m 279 425 q 210 217 210 366 q 243 74 210 122 q 343 26 277 26 q 437 64 401 26 q 473 162 473 102 q 279 425 473 297 z "},"9":{"ha":694,"x_min":26,"x_max":660,"o":"m 26 -16 l 26 10 q 427 388 363 75 q 356 359 393 369 q 282 349 320 349 q 103 427 179 349 q 28 634 28 505 q 115 876 28 783 q 334 970 203 970 q 567 856 475 970 q 660 572 660 742 q 564 261 660 400 q 342 60 467 121 q 26 -16 218 -2 m 435 446 q 443 563 443 498 q 411 838 443 746 q 317 929 380 929 q 250 884 272 929 q 227 750 227 840 q 256 520 227 615 q 366 425 284 425 q 402 430 385 425 q 435 446 419 435 z "}," ":{"ha":347,"x_min":0,"x_max":0,"o":""},"!":{"ha":376,"x_min":75,"x_max":302,"o":"m 202 311 l 174 311 q 129 570 173 380 q 75 856 75 799 q 109 943 75 910 q 189 975 142 975 q 270 942 239 975 q 302 854 302 908 q 261 627 302 800 q 202 311 202 376 m 189 208 q 269 174 235 208 q 302 94 302 141 q 269 14 302 47 q 189 -19 236 -19 q 110 14 142 -19 q 77 94 77 47 q 110 174 77 141 q 189 208 143 208 z "},"\"":{"ha":767,"x_min":119,"x_max":647,"o":"m 237 523 l 203 523 l 133 783 q 119 875 119 834 q 149 945 119 914 q 220 975 178 975 q 291 946 262 975 q 320 878 320 916 q 304 783 320 847 l 237 523 m 564 523 l 530 523 l 462 783 q 446 877 446 843 q 474 943 446 911 q 549 975 503 975 q 621 944 594 975 q 647 879 647 913 q 629 783 647 854 l 564 523 z "},"#":{"ha":926,"x_min":53,"x_max":873,"o":"m 53 717 l 261 717 l 316 978 l 444 978 l 390 717 l 631 717 l 686 978 l 812 978 l 758 717 l 873 717 l 873 592 l 732 592 l 690 385 l 873 385 l 873 259 l 664 259 l 610 0 l 481 0 l 536 259 l 294 259 l 241 0 l 112 0 l 166 259 l 53 259 l 53 385 l 192 385 l 235 592 l 53 592 l 53 717 m 363 592 l 320 385 l 562 385 l 605 592 l 363 592 z "},"$":{"ha":694,"x_min":33,"x_max":660,"o":"m 623 866 l 623 663 l 599 663 q 373 887 526 852 l 373 579 q 600 415 539 492 q 660 250 660 339 q 587 73 660 148 q 373 -16 515 -1 l 373 -94 l 316 -94 l 316 -16 q 47 31 142 -6 l 47 256 l 72 256 q 316 31 129 56 l 316 381 q 268 410 313 383 q 74 561 114 496 q 33 690 33 626 q 116 861 33 798 q 316 936 199 925 l 316 969 l 373 969 l 373 936 q 623 866 515 922 m 316 892 q 215 857 254 888 q 176 772 176 826 q 205 693 176 727 q 316 612 235 659 l 316 892 m 373 347 l 373 31 q 466 70 425 37 q 508 161 508 104 q 373 347 508 267 z "},"%":{"ha":1215,"x_min":66,"x_max":1150,"o":"m 958 976 l 341 -38 l 255 -38 l 871 976 l 958 976 m 445 724 q 395 547 445 618 q 255 476 345 476 q 118 546 170 476 q 66 723 66 615 q 119 900 66 831 q 256 970 172 970 q 392 904 339 970 q 445 724 445 838 m 317 757 q 306 914 317 881 q 256 947 295 947 q 204 905 214 947 q 194 676 194 863 q 211 521 194 545 q 257 497 227 497 q 307 533 298 497 q 317 757 315 568 m 1150 239 q 1098 60 1150 128 q 960 -8 1046 -8 q 823 61 874 -8 q 771 239 771 130 q 824 415 771 346 q 960 484 877 484 q 1097 418 1044 484 q 1150 239 1150 352 m 1021 273 q 1011 430 1021 397 q 962 462 1000 462 q 910 421 920 462 q 899 200 899 381 q 916 35 899 58 q 962 13 933 13 q 1012 51 1002 13 q 1021 273 1021 88 z "},"&":{"ha":1071,"x_min":40,"x_max":994,"o":"m 989 568 l 989 544 q 908 510 939 543 q 812 358 877 478 q 736 237 764 269 q 911 117 848 117 q 972 147 951 117 l 994 134 q 783 -19 910 -19 q 694 4 734 -19 q 589 89 654 27 q 309 -19 445 -19 q 115 54 189 -19 q 40 228 40 127 q 74 360 40 298 q 156 460 108 422 q 296 544 204 498 q 267 704 267 625 q 344 900 267 825 q 533 975 421 975 q 672 922 623 975 q 722 803 722 869 q 695 708 722 753 q 635 641 668 663 q 499 574 602 620 q 702 276 589 411 q 785 467 785 394 q 762 524 785 505 q 709 544 740 543 l 709 568 l 989 568 m 478 614 q 585 737 585 654 q 555 859 585 803 q 479 916 524 916 q 432 894 450 916 q 414 837 414 873 q 478 614 414 762 m 313 497 q 216 378 216 450 q 294 195 216 300 q 440 90 371 90 q 549 132 497 90 q 313 497 396 312 z "},"'":{"ha":390,"x_min":95,"x_max":296,"o":"m 212 524 l 180 524 l 109 783 q 95 873 95 831 q 123 944 95 913 q 195 975 151 975 q 268 945 241 975 q 296 876 296 914 q 279 783 296 846 l 212 524 z "},"(":{"ha":463,"x_min":45,"x_max":440,"o":"m 440 978 l 440 937 q 228 361 228 836 q 279 -37 228 105 q 440 -231 330 -180 l 440 -273 q 159 -42 272 -220 q 45 353 45 136 q 165 756 45 579 q 440 978 286 934 z "},")":{"ha":463,"x_min":22,"x_max":417,"o":"m 22 978 q 297 756 178 934 q 417 353 417 579 q 303 -41 417 139 q 22 -273 189 -221 l 22 -231 q 184 -38 132 -180 q 235 361 235 104 q 22 937 235 831 l 22 978 z "},"*":{"ha":694,"x_min":77,"x_max":618,"o":"m 370 685 q 472 606 398 644 q 542 519 542 570 q 524 471 542 492 q 474 451 505 451 q 389 551 404 451 q 347 674 380 615 q 307 576 317 637 q 292 501 298 518 q 266 467 286 484 q 221 451 245 451 q 174 470 194 451 q 155 516 155 490 q 232 610 155 572 q 330 685 294 642 q 262 695 302 695 q 224 692 243 695 q 157 683 166 683 q 103 704 130 683 q 77 760 77 724 q 98 806 77 787 q 149 825 119 825 q 238 775 188 825 q 336 707 294 720 q 306 817 336 758 q 279 897 279 869 q 299 953 279 930 q 349 975 320 975 q 398 952 377 975 q 418 899 418 930 q 398 833 418 873 q 361 707 362 760 q 461 778 406 722 q 547 826 508 826 q 597 808 576 826 q 618 762 618 791 q 590 706 618 726 q 536 685 562 685 q 474 692 528 685 q 441 694 458 694 q 370 685 404 694 z "},"+":{"ha":926,"x_min":86,"x_max":840,"o":"m 86 547 l 393 547 l 393 854 l 534 854 l 534 547 l 840 547 l 840 406 l 534 406 l 534 100 l 393 100 l 393 406 l 86 406 l 86 547 z "},",":{"ha":376,"x_min":62,"x_max":319,"o":"m 86 -248 l 86 -218 q 192 -139 148 -195 q 236 -23 236 -83 q 233 -2 236 -9 q 222 5 229 5 l 212 -1 q 159 -19 188 -19 q 90 16 117 -19 q 62 91 62 52 q 95 172 62 136 q 180 208 128 208 q 280 157 242 208 q 319 39 319 107 q 254 -142 319 -69 q 86 -248 190 -216 z "},"-":{"ha":463,"x_min":33,"x_max":430,"o":"m 430 394 l 430 250 l 33 250 l 33 394 l 430 394 z "},".":{"ha":376,"x_min":77,"x_max":300,"o":"m 188 205 q 267 174 233 205 q 300 94 300 142 q 267 14 300 47 q 188 -19 234 -19 q 110 14 142 -19 q 77 94 77 47 q 110 173 77 140 q 188 205 142 205 z "},"/":{"ha":390,"x_min":0,"x_max":390,"o":"m 233 975 l 390 975 l 157 -19 l 0 -19 l 233 975 z "},":":{"ha":376,"x_min":77,"x_max":300,"o":"m 187 659 q 267 627 235 659 q 300 549 300 594 q 267 470 300 503 q 189 437 234 437 q 109 470 142 437 q 77 549 77 503 q 109 627 77 594 q 187 659 141 659 m 188 205 q 267 174 233 205 q 300 94 300 142 q 267 14 300 47 q 188 -19 234 -19 q 110 14 142 -19 q 77 94 77 47 q 110 173 77 140 q 188 205 142 205 z "},";":{"ha":376,"x_min":62,"x_max":319,"o":"m 191 659 q 270 627 237 659 q 303 549 303 595 q 271 470 303 503 q 191 437 238 437 q 113 470 145 437 q 80 549 80 503 q 112 627 80 595 q 191 659 144 659 m 86 -248 l 86 -218 q 192 -139 148 -195 q 236 -23 236 -83 q 233 -2 236 -9 q 222 5 229 5 l 212 -1 q 159 -19 188 -19 q 90 16 117 -19 q 62 91 62 52 q 95 172 62 136 q 180 208 128 208 q 280 157 242 208 q 319 39 319 107 q 254 -142 319 -69 q 86 -248 190 -216 z "},"<":{"ha":926,"x_min":87,"x_max":840,"o":"m 840 98 l 87 413 l 87 541 l 840 855 l 840 702 l 304 477 l 840 252 l 840 98 z "},"=":{"ha":926,"x_min":86,"x_max":840,"o":"m 86 709 l 840 709 l 840 568 l 86 568 l 86 709 m 86 386 l 840 386 l 840 244 l 86 244 l 86 386 z "},">":{"ha":926,"x_min":87,"x_max":840,"o":"m 87 855 l 840 541 l 840 413 l 87 98 l 87 252 l 622 477 l 87 702 l 87 855 z "},"?":{"ha":535,"x_min":19,"x_max":511,"o":"m 246 311 l 216 311 q 225 441 217 404 q 261 534 233 479 q 298 625 288 588 q 308 726 308 663 q 280 876 308 826 q 198 926 253 926 q 156 914 173 926 q 140 889 140 901 q 155 847 140 873 q 190 749 190 791 q 166 692 190 718 q 109 666 142 666 q 45 695 71 666 q 19 776 19 724 q 88 919 19 863 q 254 975 157 975 q 432 918 353 975 q 511 747 511 860 q 473 616 511 671 q 352 501 435 560 q 264 413 282 451 q 246 311 247 374 m 239 208 q 317 175 284 208 q 351 94 351 142 q 318 15 351 48 q 239 -19 285 -19 q 159 14 192 -19 q 126 94 126 47 q 159 174 126 141 q 239 208 192 208 z "},"@":{"ha":1331,"x_min":62,"x_max":1306,"o":"m 827 650 l 998 658 l 869 216 q 848 104 848 143 q 865 67 848 84 q 904 51 882 51 q 1031 107 955 51 q 1158 266 1107 163 q 1208 488 1208 369 q 1085 804 1208 677 q 758 931 962 931 q 453 856 597 931 q 223 621 310 780 q 136 281 136 462 q 293 -118 136 37 q 686 -272 450 -272 q 1038 -167 877 -272 q 1263 116 1199 -62 l 1306 116 q 1061 -200 1225 -90 q 685 -311 897 -311 q 242 -140 422 -311 q 62 306 62 31 q 254 783 62 591 q 743 975 445 975 q 1113 840 979 975 q 1248 503 1248 704 q 1189 243 1248 365 q 1035 61 1131 122 q 829 0 940 0 q 717 38 751 0 q 684 121 684 76 q 701 222 684 162 q 457 0 572 0 q 370 45 400 0 q 340 155 340 90 q 409 424 340 296 q 563 614 477 551 q 703 677 649 677 q 772 649 747 677 q 803 567 797 622 l 827 650 m 719 627 q 592 461 663 627 q 521 193 521 295 q 533 148 521 166 q 562 129 545 129 q 637 184 588 129 q 729 343 686 239 q 771 536 771 446 q 758 604 771 581 q 719 627 745 627 z "},"A":{"ha":999,"x_min":20,"x_max":978,"o":"m 570 270 l 265 270 l 219 159 q 203 98 203 120 q 230 43 203 59 q 326 25 258 26 l 326 0 l 20 0 l 20 25 q 185 209 111 27 l 498 970 l 512 970 l 842 167 q 978 25 899 25 l 978 0 l 532 0 l 532 25 l 549 25 q 644 73 644 25 q 632 116 644 86 l 570 270 m 549 320 l 418 641 l 286 320 l 549 320 z "},"B":{"ha":926,"x_min":17,"x_max":888,"o":"m 623 502 q 812 421 735 486 q 888 257 888 357 q 838 116 888 177 q 705 28 787 56 q 530 0 623 0 l 17 0 l 17 25 l 45 25 q 126 54 104 25 q 148 151 148 83 l 148 801 q 119 906 148 884 q 45 928 90 928 l 26 928 l 26 954 l 491 954 q 760 889 671 954 q 848 721 848 825 q 792 579 848 634 q 623 502 736 524 m 369 903 l 369 520 l 389 520 q 557 568 501 520 q 614 713 614 616 q 583 826 614 779 q 511 888 553 873 q 397 903 469 903 l 369 903 m 369 470 l 369 148 q 387 70 369 90 q 450 50 405 50 q 592 106 541 50 q 643 250 643 163 q 586 403 643 336 q 389 470 529 470 l 369 470 z "},"C":{"ha":999,"x_min":64,"x_max":943,"o":"m 943 974 l 943 654 l 916 654 q 804 850 892 787 q 620 914 716 914 q 468 866 536 914 q 356 724 400 818 q 313 476 313 630 q 399 145 313 250 q 614 39 486 39 q 795 92 710 39 q 925 219 880 144 l 925 137 q 570 -19 783 -19 q 199 124 334 -19 q 64 461 64 267 q 214 825 64 675 q 561 975 363 975 q 776 928 659 975 q 849 907 824 907 q 916 974 903 907 l 943 974 z "},"D":{"ha":1071,"x_min":24,"x_max":1023,"o":"m 24 0 l 24 25 l 53 25 q 127 46 98 25 q 155 151 155 67 l 155 801 q 134 898 155 868 q 53 928 112 928 l 24 928 l 24 954 l 477 954 q 745 911 633 954 q 940 754 857 869 q 1023 471 1023 640 q 975 247 1023 344 q 850 93 927 150 q 689 18 772 37 q 477 0 606 0 l 24 0 m 377 903 l 377 159 q 395 71 377 92 q 480 51 413 51 q 702 154 628 51 q 776 464 776 258 q 695 793 776 684 q 454 903 615 903 l 377 903 z "},"E":{"ha":926,"x_min":25,"x_max":897,"o":"m 386 904 l 386 511 l 404 511 q 505 530 471 511 q 561 597 538 549 q 594 731 583 646 l 620 731 l 620 246 l 594 246 q 558 382 584 334 q 499 445 533 429 q 404 461 465 461 l 386 461 l 386 161 q 403 73 386 96 q 479 51 420 51 l 570 51 q 873 294 799 51 l 897 294 l 854 0 l 25 0 l 25 25 l 62 25 q 136 46 107 25 q 164 151 164 67 l 164 801 q 135 906 164 884 q 62 928 106 928 l 25 928 l 25 954 l 829 954 l 829 684 l 805 684 q 752 820 791 766 q 663 888 713 873 q 515 904 612 904 l 386 904 z "},"F":{"ha":839,"x_min":17,"x_max":808,"o":"m 376 902 l 376 505 l 410 505 q 560 567 515 505 q 604 707 604 629 l 632 707 l 632 241 l 604 241 q 403 456 594 456 l 376 456 l 376 151 q 398 55 376 85 q 479 25 420 25 l 520 25 l 520 0 l 17 0 l 17 25 l 54 25 q 132 54 110 25 q 153 151 153 82 l 153 801 q 125 906 153 883 q 49 928 97 928 l 17 928 l 17 954 l 808 954 l 808 691 l 783 691 q 538 902 763 902 l 376 902 z "},"G":{"ha":1071,"x_min":60,"x_max":1051,"o":"m 939 972 l 939 649 l 913 649 q 781 848 871 775 q 585 921 691 921 q 382 800 457 921 q 307 455 307 678 q 385 126 307 225 q 583 26 463 26 q 719 60 649 26 l 719 291 q 690 359 719 339 q 597 378 661 378 l 597 402 l 1051 402 l 1051 378 q 977 364 1002 378 q 945 328 951 349 q 939 251 939 307 l 939 60 q 578 -19 791 -19 q 209 109 357 -19 q 60 456 60 237 q 211 824 60 673 q 564 975 362 975 q 798 923 667 975 q 848 909 831 909 q 913 972 895 909 l 939 972 z "},"H":{"ha":1143,"x_min":23,"x_max":1120,"o":"m 774 460 l 369 460 l 369 151 q 390 55 369 85 q 471 25 412 25 l 496 25 l 496 0 l 23 0 l 23 25 l 45 25 q 124 54 102 25 q 147 151 147 82 l 147 801 q 125 899 147 869 q 45 928 103 928 l 23 928 l 23 954 l 496 954 l 496 928 l 471 928 q 391 900 414 928 q 369 801 369 871 l 369 519 l 774 519 l 774 801 q 752 899 774 869 q 671 928 730 928 l 650 928 l 650 954 l 1120 954 l 1120 928 l 1097 928 q 1018 900 1040 928 q 995 801 995 871 l 995 151 q 1017 55 995 85 q 1097 25 1038 25 l 1120 25 l 1120 0 l 650 0 l 650 25 l 671 25 q 751 54 728 25 q 774 151 774 82 l 774 460 z "},"I":{"ha":535,"x_min":23,"x_max":512,"o":"m 512 25 l 512 0 l 23 0 l 23 25 l 54 25 q 134 54 112 25 q 157 151 157 83 l 157 801 q 135 898 157 868 q 54 928 113 928 l 23 928 l 23 954 l 512 954 l 512 928 l 481 928 q 400 900 423 928 q 378 801 378 871 l 378 151 q 399 55 378 85 q 481 25 421 25 l 512 25 z "},"J":{"ha":767,"x_min":31,"x_max":744,"o":"m 246 928 l 246 954 l 744 954 l 744 928 l 715 928 q 642 907 670 928 q 613 801 613 886 l 613 283 q 585 126 613 188 q 480 22 557 64 q 315 -19 404 -19 q 106 41 180 -19 q 31 174 31 101 q 62 254 31 227 q 133 281 92 281 q 202 255 174 281 q 230 189 230 229 q 201 114 230 153 q 186 84 186 95 q 213 48 186 63 q 280 33 241 33 q 360 61 328 33 q 392 182 392 90 l 392 801 q 363 906 392 883 q 290 928 335 928 l 246 928 z "},"K":{"ha":999,"x_min":19,"x_max":980,"o":"m 544 602 l 847 126 q 914 41 892 56 q 980 25 937 25 l 980 0 l 535 0 l 535 25 q 621 62 621 25 q 585 144 621 87 l 401 435 l 369 397 l 369 151 q 395 49 369 73 q 479 25 420 25 l 479 0 l 19 0 l 19 25 l 45 25 q 125 54 103 25 q 148 151 148 83 l 148 801 q 126 898 148 868 q 45 928 104 928 l 19 928 l 19 954 l 479 954 l 479 928 q 395 904 421 928 q 369 801 369 880 l 369 477 l 610 761 q 675 874 675 836 q 585 928 675 928 l 572 928 l 572 954 l 930 954 l 930 928 q 801 880 862 924 q 630 704 739 835 l 544 602 z "},"L":{"ha":926,"x_min":22,"x_max":894,"o":"m 894 326 l 860 0 l 22 0 l 22 25 l 70 25 q 150 54 127 25 q 172 151 172 83 l 172 801 q 151 898 172 868 q 70 928 129 928 l 22 928 l 22 954 l 562 954 l 562 928 l 496 928 q 416 900 439 928 q 394 801 394 871 l 394 163 q 409 73 394 96 q 484 49 425 49 l 576 49 q 703 72 650 49 q 799 156 755 94 q 869 326 842 217 l 894 326 z "},"M":{"ha":1375,"x_min":20,"x_max":1355,"o":"m 690 298 l 985 954 l 1355 954 l 1355 928 l 1331 928 q 1252 900 1274 928 q 1230 801 1230 871 l 1230 151 q 1251 55 1230 85 q 1331 25 1272 25 l 1355 25 l 1355 0 l 871 0 l 871 25 l 905 25 q 985 54 963 25 q 1008 151 1008 82 l 1008 882 l 610 0 l 591 0 l 195 875 l 195 174 q 205 85 195 110 q 245 42 214 60 q 313 25 275 25 l 330 25 l 330 0 l 20 0 l 20 25 q 94 44 62 25 q 136 89 125 62 q 146 174 146 115 l 146 801 q 124 898 146 868 q 43 928 102 928 l 20 928 l 20 954 l 394 954 l 690 298 z "},"N":{"ha":1071,"x_min":21,"x_max":1052,"o":"m 337 954 l 882 336 l 882 771 q 854 896 882 863 q 741 928 825 928 l 741 954 l 1052 954 l 1052 928 q 978 910 1005 928 q 942 864 951 892 q 932 771 932 836 l 932 -14 l 908 -14 l 205 779 l 205 156 q 221 75 205 102 q 264 37 237 47 q 356 25 292 26 l 356 0 l 21 0 l 21 25 q 125 56 94 26 q 155 156 155 85 l 155 836 q 133 860 143 849 q 21 928 75 926 l 21 954 l 337 954 z "},"O":{"ha":1143,"x_min":58,"x_max":1085,"o":"m 1085 473 q 945 123 1085 264 q 572 -19 804 -19 q 318 36 430 -19 q 132 206 206 92 q 58 479 58 320 q 135 754 58 640 q 328 922 212 869 q 570 975 444 975 q 940 836 794 975 q 1085 473 1085 696 m 838 467 q 764 806 838 688 q 572 924 690 924 q 378 808 452 924 q 304 479 304 692 q 374 155 304 281 q 569 28 444 28 q 764 146 691 28 q 838 467 838 264 z "},"P":{"ha":926,"x_min":25,"x_max":893,"o":"m 382 435 l 382 151 q 404 55 382 85 q 484 25 425 25 l 510 25 l 510 0 l 25 0 l 25 25 l 59 25 q 139 54 117 25 q 161 151 161 83 l 161 801 q 140 899 161 869 q 59 928 118 928 l 25 928 l 25 954 l 510 954 q 802 877 711 954 q 893 696 893 800 q 805 515 893 595 q 484 435 717 435 l 382 435 m 382 905 l 382 486 l 454 486 q 605 537 555 486 q 654 690 654 588 q 614 847 654 790 q 454 905 573 905 l 382 905 z "},"Q":{"ha":1143,"x_min":57,"x_max":1084,"o":"m 695 -9 q 794 -149 720 -96 q 966 -201 867 -201 q 1037 -194 1000 -201 l 1037 -233 q 844 -262 945 -262 q 603 -194 707 -262 q 453 -9 499 -126 q 161 163 266 28 q 57 477 57 297 q 205 839 57 703 q 568 975 353 975 q 937 836 790 975 q 1084 476 1084 696 q 980 161 1084 294 q 695 -9 876 29 m 837 473 q 766 802 837 680 q 570 924 694 924 q 377 803 449 924 q 305 482 305 682 q 378 148 305 267 q 569 28 451 28 q 699 73 639 28 q 798 218 759 117 q 837 473 837 320 z "},"R":{"ha":999,"x_min":26,"x_max":974,"o":"m 380 435 l 380 130 q 406 47 380 70 q 500 25 432 25 l 515 25 l 515 0 l 26 0 l 26 25 l 40 25 q 134 47 108 25 q 161 130 161 68 l 161 823 q 134 907 161 885 q 40 928 108 928 l 26 928 l 26 954 l 500 954 q 778 878 694 954 q 863 690 863 802 q 810 542 863 601 q 652 454 758 483 l 849 140 q 974 25 920 28 l 974 0 l 695 0 l 423 435 l 380 435 m 380 903 l 380 486 l 433 486 q 592 543 547 486 q 636 694 636 599 q 607 821 636 774 q 534 886 578 869 q 414 903 489 903 l 380 903 z "},"S":{"ha":839,"x_min":47,"x_max":792,"o":"m 730 975 l 736 665 l 710 665 q 603 844 694 768 q 387 921 512 921 q 248 880 302 921 q 194 779 194 839 q 239 687 194 724 q 416 608 285 650 q 630 524 559 561 q 747 419 701 487 q 792 268 792 351 q 691 61 792 140 q 427 -19 589 -19 q 210 26 332 -19 q 149 42 168 42 q 75 -19 100 42 l 47 -19 l 47 330 l 74 330 q 193 111 97 193 q 420 30 290 30 q 577 71 518 30 q 636 181 636 111 q 581 294 636 250 q 389 385 526 337 q 189 467 253 432 q 86 562 124 502 q 48 697 48 621 q 140 895 48 814 q 373 975 232 975 q 581 926 471 975 q 654 902 635 902 q 704 975 704 902 l 730 975 z "},"T":{"ha":926,"x_min":33,"x_max":892,"o":"m 892 954 l 892 702 l 867 702 q 663 901 840 901 l 574 901 l 574 151 q 595 55 574 85 q 676 25 617 25 l 711 25 l 711 0 l 214 0 l 214 25 l 250 25 q 324 46 296 25 q 352 151 352 67 l 352 901 l 255 901 q 162 882 199 901 q 96 812 125 863 q 61 702 67 762 l 33 702 l 33 954 l 892 954 z "},"U":{"ha":1071,"x_min":19,"x_max":1051,"o":"m 1051 954 l 1051 928 q 961 902 996 928 q 927 793 927 876 l 927 422 q 917 237 927 301 q 859 111 906 172 q 734 15 812 49 q 541 -19 655 -19 q 355 10 432 -19 q 232 85 278 39 q 170 187 186 132 q 153 336 153 243 l 153 793 q 145 874 153 850 q 115 913 138 898 q 37 928 92 928 l 19 928 l 19 954 l 492 954 l 492 928 l 476 928 q 412 913 435 928 q 381 875 388 897 q 374 793 374 852 l 374 318 q 388 163 374 210 q 458 80 402 117 q 602 43 515 43 q 738 73 680 43 q 828 151 796 103 q 868 256 859 199 q 878 429 878 313 l 878 793 q 852 894 878 865 q 758 928 826 923 l 758 954 l 1051 954 z "},"V":{"ha":999,"x_min":24,"x_max":977,"o":"m 977 954 l 977 928 q 896 885 933 925 q 795 691 858 845 l 503 -22 l 478 -22 l 140 823 q 99 896 123 864 q 24 928 75 928 l 24 954 l 448 954 l 448 928 q 355 881 355 928 q 367 831 355 861 l 579 298 l 777 782 q 796 855 796 827 q 691 928 796 926 l 691 954 l 977 954 z "},"W":{"ha":1375,"x_min":16,"x_max":1360,"o":"m 1360 954 l 1360 928 q 1312 894 1332 924 q 1257 765 1293 865 l 963 -20 l 941 -20 l 711 595 l 456 -20 l 430 -20 l 106 819 q 63 909 78 892 q 16 928 47 927 l 16 954 l 404 954 l 404 928 q 323 874 323 926 q 349 781 323 848 l 534 301 l 686 664 l 633 804 q 573 905 604 882 q 492 928 542 927 l 492 954 l 941 954 l 941 928 q 861 917 882 928 q 840 881 840 907 q 864 794 840 857 l 1038 326 l 1202 765 q 1227 872 1227 831 q 1134 928 1227 926 l 1134 954 l 1360 954 z "},"X":{"ha":999,"x_min":23,"x_max":975,"o":"m 582 557 l 843 144 q 975 25 917 28 l 975 0 l 532 0 l 532 25 q 620 70 620 25 q 582 151 620 91 l 443 374 l 294 175 q 252 85 252 120 q 374 25 252 31 l 374 0 l 23 0 l 23 25 q 138 73 87 25 q 237 184 190 121 l 412 420 l 161 817 q 94 902 120 880 q 23 928 67 924 l 23 954 l 481 954 l 481 928 q 408 918 427 928 q 389 882 389 909 q 412 823 389 861 l 552 602 l 664 753 q 713 857 713 820 q 611 928 713 928 l 611 954 l 945 954 l 945 928 q 846 893 885 926 q 764 802 807 860 l 582 557 z "},"Y":{"ha":999,"x_min":19,"x_max":979,"o":"m 598 443 l 777 784 q 804 867 804 837 q 696 928 804 927 l 696 954 l 979 954 l 979 928 q 912 903 941 928 q 829 774 883 877 l 628 393 l 628 151 q 649 55 628 85 q 730 25 671 25 l 777 25 l 777 0 l 260 0 l 260 25 l 304 25 q 384 54 361 25 q 406 151 406 83 l 406 353 l 161 809 q 89 911 116 894 q 19 928 62 928 l 19 954 l 463 954 l 463 928 q 389 919 406 926 q 371 886 371 911 q 391 829 371 867 l 598 443 z "},"Z":{"ha":999,"x_min":45,"x_max":955,"o":"m 902 954 l 329 51 l 529 51 q 687 60 635 51 q 792 105 738 69 q 881 201 846 141 q 928 334 916 260 l 955 334 l 918 0 l 45 0 l 620 903 l 433 903 q 146 680 189 903 l 123 680 l 146 954 l 902 954 z "},"[":{"ha":376,"x_min":87,"x_max":356,"o":"m 87 954 l 356 954 l 356 928 l 341 928 q 273 911 287 928 q 258 831 258 893 l 258 -130 q 272 -206 258 -190 q 341 -222 286 -222 l 356 -222 l 356 -249 l 87 -249 l 87 954 z "},"\\":{"ha":390,"x_min":0,"x_max":390,"o":"m 157 975 l 390 -19 l 233 -19 l 0 975 l 157 975 z "},"]":{"ha":376,"x_min":20,"x_max":290,"o":"m 290 954 l 290 -249 l 20 -249 l 20 -222 l 35 -222 q 104 -207 90 -222 q 117 -130 117 -191 l 117 831 q 104 910 117 892 q 35 928 91 928 l 20 928 l 20 954 l 290 954 z "},"^":{"ha":709,"x_min":53,"x_max":655,"o":"m 165 469 l 53 469 l 332 954 l 376 954 l 655 469 l 538 469 l 351 793 l 165 469 z "},"_":{"ha":694,"x_min":-8,"x_max":703,"o":"m -8 -104 l 703 -104 l 703 -174 l -8 -174 l -8 -104 z "},"`":{"ha":463,"x_min":71,"x_max":355,"o":"m 71 978 l 275 978 l 355 741 l 297 741 l 71 978 z "},"a":{"ha":694,"x_min":56,"x_max":675,"o":"m 662 96 l 675 83 q 522 -19 627 -19 q 434 7 465 -19 q 396 83 403 33 q 353 52 387 77 q 184 -19 260 -19 q 95 18 134 -19 q 56 114 56 54 q 121 245 56 184 q 396 402 185 306 l 396 486 q 391 559 396 539 q 365 594 387 578 q 307 609 342 609 q 240 593 269 609 q 212 553 212 577 q 229 521 212 540 q 256 459 256 488 q 231 406 256 426 q 167 385 205 385 q 93 409 121 385 q 66 471 66 433 q 149 601 66 543 q 356 659 233 659 q 496 634 446 659 q 567 569 546 609 q 587 454 587 530 l 587 199 q 595 92 587 117 q 626 68 602 68 q 662 96 646 68 m 396 353 q 246 174 246 276 q 266 119 246 139 q 313 99 285 99 q 354 108 334 99 q 396 134 375 117 l 396 353 z "},"b":{"ha":694,"x_min":20,"x_max":668,"o":"m 282 954 l 282 586 q 358 641 319 623 q 438 659 397 659 q 552 621 500 659 q 636 514 604 583 q 668 352 668 445 q 582 87 668 193 q 373 -19 495 -19 q 221 54 279 -19 q 113 -17 196 36 l 90 -17 l 90 802 q 77 901 90 876 q 20 928 64 926 l 20 954 l 282 954 m 282 522 l 282 294 q 300 78 282 128 q 363 28 318 28 q 442 104 416 28 q 468 331 468 180 q 445 519 468 456 q 376 582 422 582 q 332 567 356 582 q 282 522 309 552 z "},"c":{"ha":607,"x_min":33,"x_max":591,"o":"m 570 163 l 591 148 q 329 -19 501 -19 q 113 79 192 -19 q 33 308 33 177 q 123 559 33 459 q 349 659 213 659 q 507 612 441 659 q 573 497 573 564 q 550 438 573 463 q 488 413 526 413 q 383 538 397 413 q 319 611 375 611 q 243 557 271 611 q 216 410 216 503 q 267 190 216 293 q 420 87 319 87 q 570 163 501 87 z "},"d":{"ha":694,"x_min":32,"x_max":675,"o":"m 597 954 l 597 187 q 612 86 597 109 q 675 62 628 62 l 675 37 l 407 -18 l 407 75 q 345 5 382 28 q 261 -19 309 -19 q 97 77 161 -19 q 32 328 32 172 q 105 568 32 477 q 273 659 178 659 q 345 643 312 659 q 407 592 378 626 l 407 802 q 393 903 407 877 q 339 928 380 928 l 312 928 l 312 954 l 597 954 m 407 511 q 362 575 387 553 q 309 596 338 596 q 252 542 271 596 q 233 380 233 488 q 257 126 233 186 q 323 66 282 66 q 368 86 347 66 q 407 149 389 107 l 407 511 z "},"e":{"ha":607,"x_min":32,"x_max":581,"o":"m 555 191 l 581 176 q 315 -19 491 -19 q 106 76 180 -19 q 32 309 32 170 q 120 558 32 458 q 321 659 208 659 q 504 571 427 659 q 581 342 581 483 l 216 342 q 276 156 222 227 q 405 85 331 85 q 555 191 496 85 m 216 388 l 410 388 q 411 433 411 411 q 385 571 411 528 q 318 614 358 614 q 247 562 277 614 q 216 388 216 509 z "},"f":{"ha":463,"x_min":27,"x_max":545,"o":"m 396 644 l 396 575 l 308 575 l 308 150 q 321 51 308 77 q 376 25 335 25 l 408 25 l 408 0 l 27 0 l 27 25 l 50 25 q 105 51 91 25 q 119 150 119 76 l 119 575 l 27 575 l 27 644 l 119 644 l 119 691 q 136 831 119 781 q 220 926 153 882 q 386 970 286 970 q 503 941 460 970 q 545 871 545 913 q 516 814 545 834 q 450 794 488 794 q 392 812 411 794 q 373 850 373 830 q 378 881 373 861 q 380 899 380 891 q 351 929 380 929 q 317 905 326 929 q 308 813 308 882 l 308 644 l 396 644 z "},"g":{"ha":694,"x_min":43,"x_max":664,"o":"m 663 561 l 541 561 q 606 420 606 505 q 523 261 606 324 q 332 197 440 197 q 294 199 314 197 q 268 201 277 201 q 216 182 241 201 q 192 135 192 163 q 280 80 192 80 l 410 81 q 664 -85 664 81 q 588 -234 664 -174 q 344 -294 513 -294 q 118 -263 193 -294 q 43 -168 43 -231 q 70 -111 43 -135 q 150 -71 96 -86 q 66 50 66 -28 q 99 140 66 100 q 216 218 132 180 q 87 312 129 251 q 46 437 46 374 q 125 593 46 527 q 323 659 203 659 q 390 653 359 659 q 448 635 421 647 l 663 635 l 663 561 m 239 418 q 262 282 239 328 q 331 237 286 237 q 400 286 377 237 q 423 429 423 334 q 400 572 423 524 q 332 619 378 619 q 263 569 286 619 q 239 418 239 519 m 158 -149 q 207 -221 158 -197 q 353 -245 256 -245 q 507 -216 460 -245 q 553 -151 553 -187 q 522 -105 553 -124 q 310 -85 491 -85 q 221 -89 245 -85 q 178 -112 197 -93 q 158 -149 158 -132 z "},"h":{"ha":694,"x_min":24,"x_max":679,"o":"m 271 954 l 271 556 q 355 633 310 608 q 453 659 401 659 q 627 424 627 659 l 627 150 q 634 61 627 82 q 667 31 642 41 l 679 25 l 679 0 l 378 0 l 378 25 q 425 56 415 33 q 435 150 435 79 l 435 462 q 376 569 435 569 q 325 549 351 569 q 271 490 298 530 l 271 150 q 281 57 271 80 q 328 25 291 34 l 328 0 l 24 0 l 24 25 q 70 57 60 36 q 81 150 81 79 l 81 802 q 71 899 81 875 q 24 928 60 923 l 24 954 l 271 954 z "},"i":{"ha":376,"x_min":18,"x_max":357,"o":"m 195 975 q 272 944 240 975 q 304 868 304 913 q 272 792 304 824 q 196 761 241 761 q 120 792 151 761 q 89 869 89 824 q 119 943 89 911 q 195 975 150 975 m 288 644 l 288 150 q 301 52 288 76 q 357 25 315 28 l 357 0 l 18 0 l 18 25 q 82 48 66 25 q 98 150 98 71 l 98 492 q 82 596 98 572 q 18 619 66 619 l 18 644 l 288 644 z "},"j":{"ha":376,"x_min":-28,"x_max":298,"o":"m 189 975 q 266 944 235 975 q 298 868 298 913 q 266 792 298 824 q 191 761 235 761 q 114 793 146 761 q 83 869 83 825 q 113 943 83 911 q 189 975 144 975 m 290 644 l 290 9 q 277 -159 290 -106 q 215 -254 264 -213 q 94 -294 165 -294 q 5 -270 39 -294 q -28 -211 -28 -246 q -9 -167 -28 -186 q 39 -148 9 -148 q 107 -206 82 -148 q 145 -245 124 -245 q 170 -235 161 -245 q 178 -205 178 -225 q 139 -92 178 -180 q 100 94 100 -2 l 100 493 q 86 593 100 568 q 32 619 73 619 l 18 619 l 18 644 l 290 644 z "},"k":{"ha":767,"x_min":20,"x_max":747,"o":"m 294 954 l 294 319 l 427 472 q 484 570 484 537 q 410 619 484 619 l 410 644 l 688 644 l 688 619 q 604 590 641 615 q 500 490 567 566 l 444 425 l 616 161 q 747 25 701 30 l 747 0 l 427 0 l 427 25 q 467 52 467 28 q 427 129 467 68 l 323 289 l 294 254 l 294 151 q 309 50 294 75 q 372 25 323 25 l 372 0 l 20 0 l 20 25 l 36 25 q 91 51 77 25 q 104 151 104 77 l 104 802 q 91 903 104 877 q 36 928 77 928 l 20 928 l 20 954 l 294 954 z "},"l":{"ha":376,"x_min":18,"x_max":361,"o":"m 292 954 l 292 155 l 291 96 q 361 25 291 25 l 361 0 l 18 0 l 18 25 q 75 39 57 26 q 97 72 92 52 q 102 155 102 93 l 102 781 q 97 884 102 864 q 75 916 92 904 q 18 928 58 928 l 18 954 l 292 954 z "},"m":{"ha":1071,"x_min":18,"x_max":1052,"o":"m 273 644 l 273 554 q 361 633 314 607 q 459 659 408 659 q 563 629 516 659 q 620 542 610 598 q 711 630 661 601 q 821 659 762 659 q 944 611 899 659 q 990 479 990 562 l 990 150 q 1002 54 990 78 q 1052 25 1013 29 l 1052 0 l 741 0 l 741 25 q 789 55 778 31 q 800 150 800 79 l 800 467 q 787 547 800 524 q 743 570 774 570 q 688 549 715 570 q 631 486 660 528 l 631 150 q 642 55 631 79 q 690 25 652 31 l 690 0 l 383 0 l 383 25 q 430 56 420 32 q 441 150 441 79 l 441 462 q 428 544 441 521 q 380 568 416 568 q 327 547 354 568 q 273 486 300 527 l 273 150 q 284 54 273 79 q 333 25 295 30 l 333 0 l 18 0 l 18 25 q 70 53 58 28 q 82 150 82 77 l 82 492 q 70 591 82 566 q 18 619 58 616 l 18 644 l 273 644 z "},"n":{"ha":694,"x_min":28,"x_max":675,"o":"m 271 644 l 271 558 q 360 634 313 609 q 456 659 406 659 q 563 623 519 659 q 617 542 607 587 q 627 399 627 496 l 627 150 q 635 62 627 81 q 675 25 643 42 l 675 0 l 380 0 l 380 25 q 426 56 416 33 q 436 150 436 79 l 436 436 q 424 545 436 520 q 376 570 411 570 q 324 551 350 570 q 271 492 298 532 l 271 150 q 281 56 271 80 q 329 25 292 33 l 329 0 l 28 0 l 28 25 q 71 58 62 35 q 81 150 81 81 l 81 492 q 71 585 81 562 q 28 619 62 609 l 28 644 l 271 644 z "},"o":{"ha":694,"x_min":39,"x_max":655,"o":"m 655 318 q 559 68 655 155 q 351 -19 463 -19 q 137 68 234 -19 q 39 321 39 155 q 128 566 39 472 q 345 659 217 659 q 566 567 476 659 q 655 318 655 475 m 456 304 q 433 552 456 490 q 349 614 411 614 q 266 557 292 614 q 239 364 239 501 q 261 97 239 162 q 348 31 283 31 q 431 90 407 31 q 456 304 456 149 z "},"p":{"ha":694,"x_min":20,"x_max":661,"o":"m 287 644 l 287 568 q 353 636 316 614 q 436 659 391 659 q 594 566 528 659 q 661 319 661 473 q 586 71 661 161 q 420 -19 512 -19 q 347 -1 380 -19 q 287 54 313 18 l 287 -144 q 300 -242 287 -217 q 355 -267 314 -267 l 384 -267 l 384 -293 l 20 -293 l 20 -267 q 82 -243 67 -267 q 96 -144 96 -220 l 96 493 q 81 595 96 570 q 20 619 66 619 l 20 644 l 287 644 m 287 494 l 287 115 q 337 64 313 81 q 382 47 361 47 q 440 98 420 47 q 460 315 460 148 q 439 511 460 446 q 373 576 417 576 q 327 556 348 576 q 287 494 305 536 z "},"q":{"ha":701,"x_min":34,"x_max":679,"o":"m 609 659 l 609 -144 q 622 -241 609 -217 q 679 -267 635 -265 l 679 -293 l 338 -293 l 338 -267 q 403 -244 387 -267 q 418 -144 418 -222 l 418 58 q 346 0 385 20 q 263 -19 307 -19 q 100 70 167 -19 q 34 294 34 158 q 127 567 34 475 q 326 659 221 659 q 411 641 372 659 q 480 587 449 623 l 590 659 l 609 659 m 418 118 l 418 389 q 399 569 418 523 q 337 615 379 615 q 260 541 286 615 q 234 319 234 467 q 259 114 234 166 q 328 61 285 61 q 371 75 349 61 q 418 118 394 90 z "},"r":{"ha":535,"x_min":15,"x_max":505,"o":"m 277 644 l 277 529 q 350 627 311 594 q 431 659 389 659 q 485 634 465 659 q 505 568 505 608 q 483 497 505 522 q 429 472 460 472 q 369 497 401 472 q 330 516 343 516 q 290 476 302 516 q 277 336 277 436 l 277 150 q 290 51 277 77 q 345 25 304 25 l 360 25 l 360 0 l 15 0 l 15 25 q 72 50 58 25 q 85 150 85 75 l 85 493 q 72 592 85 567 q 15 619 59 616 l 15 644 l 277 644 z "},"s":{"ha":535,"x_min":28,"x_max":514,"o":"m 36 210 l 52 210 q 148 75 86 121 q 275 28 210 28 q 343 51 313 28 q 374 111 374 73 q 345 172 374 145 q 232 237 314 199 q 75 337 122 288 q 28 462 28 386 q 87 602 28 544 q 234 659 146 659 q 340 635 280 659 q 392 619 379 619 q 448 659 425 619 l 464 659 l 475 441 l 458 441 q 370 565 431 519 q 244 611 309 611 q 183 592 208 611 q 159 545 159 572 q 283 432 159 492 q 465 319 414 369 q 514 188 514 269 q 452 43 514 104 q 290 -19 391 -19 q 162 9 237 -19 q 111 24 123 24 q 64 -19 83 24 l 52 -19 l 36 210 z "},"t":{"ha":463,"x_min":23,"x_max":439,"o":"m 439 644 l 439 576 l 294 576 l 294 171 q 304 82 294 104 q 343 60 315 60 q 423 125 390 60 l 439 102 q 264 -19 385 -19 q 171 6 209 -19 q 117 69 132 32 q 102 186 102 106 l 102 576 l 23 576 l 23 601 q 170 736 96 652 q 270 876 245 819 l 294 876 l 294 644 l 439 644 z "},"u":{"ha":694,"x_min":20,"x_max":671,"o":"m 623 644 l 623 102 l 623 72 q 671 25 629 28 l 671 0 l 431 0 l 431 83 q 341 7 387 33 q 248 -19 296 -19 q 119 36 165 -19 q 73 197 73 90 l 73 526 q 61 595 73 576 q 20 619 49 614 l 20 644 l 265 644 l 265 197 q 280 106 265 136 q 324 75 295 75 q 382 96 355 75 q 431 159 408 117 l 431 526 q 415 595 431 574 q 353 619 399 616 l 353 644 l 623 644 z "},"v":{"ha":607,"x_min":14,"x_max":594,"o":"m 594 644 l 594 619 q 494 461 545 606 l 323 -18 l 292 -18 l 104 498 q 60 597 76 576 q 14 619 43 617 l 14 644 l 336 644 l 336 619 q 279 572 279 617 q 292 517 279 553 l 382 273 l 462 498 q 475 559 475 536 q 419 619 475 614 l 419 644 l 594 644 z "},"w":{"ha":926,"x_min":27,"x_max":899,"o":"m 899 644 l 899 619 q 815 458 864 602 l 656 -16 l 621 -16 l 466 450 l 309 -16 l 273 -16 l 85 526 q 27 619 55 614 l 27 644 l 319 644 l 319 619 q 267 583 267 619 q 278 532 267 566 l 363 283 l 444 518 l 429 563 q 363 619 412 614 l 363 644 l 680 644 l 680 619 q 623 579 623 616 q 635 526 623 563 l 713 290 l 783 499 q 796 561 796 539 q 749 619 796 606 l 749 644 l 899 644 z "},"x":{"ha":767,"x_min":27,"x_max":741,"o":"m 453 382 l 645 102 q 696 39 680 52 q 741 25 713 25 l 741 0 l 382 0 l 382 25 l 397 25 q 444 52 444 25 q 412 117 444 70 l 332 236 l 256 144 q 212 63 212 90 q 277 25 212 25 l 277 0 l 27 0 l 27 25 q 99 40 71 26 q 167 102 127 55 l 308 272 l 124 536 q 70 605 87 591 q 27 619 53 619 l 27 644 l 382 644 l 382 619 q 321 591 321 619 q 344 541 321 574 l 429 418 l 513 522 q 541 581 541 555 q 484 619 541 619 l 484 644 l 711 644 l 711 619 q 642 598 667 616 q 563 515 616 581 l 453 382 z "},"y":{"ha":694,"x_min":23,"x_max":671,"o":"m 671 644 l 671 619 q 611 585 634 616 q 540 415 589 553 l 362 -89 q 273 -256 317 -217 q 170 -294 229 -294 q 82 -264 116 -294 q 48 -186 48 -234 q 73 -119 48 -146 q 134 -92 98 -92 q 208 -186 208 -92 q 230 -223 208 -223 q 329 -66 275 -223 l 341 -30 l 144 446 q 80 579 102 549 q 23 619 59 609 l 23 644 l 362 644 l 362 619 q 300 579 300 616 q 322 499 300 553 l 432 233 l 513 467 q 532 560 532 525 q 516 606 532 593 q 460 619 499 618 l 460 644 l 671 644 z "},"z":{"ha":607,"x_min":18,"x_max":586,"o":"m 586 644 l 586 625 l 252 43 l 296 43 q 419 55 376 43 q 498 106 463 66 q 555 217 533 145 l 576 217 l 555 0 l 18 0 l 357 600 l 260 600 q 148 575 184 600 q 90 457 112 549 l 66 457 l 66 644 l 586 644 z "},"{":{"ha":550,"x_min":112,"x_max":488,"o":"m 488 978 l 488 947 q 388 899 419 936 q 356 820 356 861 q 372 709 356 774 q 389 588 389 640 q 337 461 389 525 q 168 368 286 397 q 343 267 296 331 q 390 148 390 203 q 374 37 390 104 q 357 -81 357 -30 q 488 -212 357 -186 l 488 -243 q 277 -173 346 -243 q 208 -31 208 -102 q 229 99 208 18 q 245 209 245 159 q 211 299 245 260 q 112 347 176 338 l 112 388 q 214 441 182 398 q 245 532 245 485 q 230 637 245 581 q 209 762 209 718 q 280 906 209 837 q 488 978 351 975 z "},"|":{"ha":304,"x_min":79,"x_max":226,"o":"m 79 975 l 226 975 l 226 -294 l 79 -294 l 79 975 z "},"}":{"ha":550,"x_min":62,"x_max":438,"o":"m 62 -244 l 62 -213 q 162 -164 130 -201 q 194 -86 194 -127 q 178 25 194 -40 q 161 146 161 94 q 212 273 161 210 q 382 366 263 336 q 207 467 254 404 q 159 586 159 530 q 176 696 159 629 q 193 816 193 764 q 62 946 193 920 l 62 977 q 193 958 134 977 q 297 881 252 938 q 342 764 342 825 q 321 635 342 715 q 305 525 305 574 q 339 435 305 473 q 438 387 373 396 l 438 346 q 336 292 368 336 q 305 201 305 249 q 320 96 305 154 q 340 -27 340 16 q 266 -176 340 -113 q 62 -244 191 -239 z "},"~":{"ha":926,"x_min":87,"x_max":839,"o":"m 792 599 l 839 599 q 780 417 835 479 q 642 354 725 354 q 558 367 600 354 q 387 434 515 379 q 248 474 292 474 q 134 355 153 474 l 87 355 q 148 542 92 485 q 278 600 204 600 q 539 520 359 600 q 678 478 636 478 q 758 512 729 478 q 792 599 787 547 z "}," ":{"ha":347,"x_min":0,"x_max":0,"o":""},"¤":{"ha":969,"x_min":129,"x_max":841,"o":"m 656 744 l 746 834 l 841 737 l 752 648 q 802 478 802 567 q 752 307 802 387 l 841 218 l 746 122 l 656 210 q 574 173 617 185 q 483 160 530 160 q 396 173 438 160 q 314 210 353 185 l 225 122 l 129 218 l 218 307 q 168 479 168 385 q 218 648 168 569 l 129 737 l 225 834 l 314 744 q 397 781 355 769 q 484 793 440 793 q 572 781 529 793 q 656 744 615 769 m 485 659 q 357 605 410 659 q 304 477 304 552 q 357 349 304 402 q 485 295 410 295 q 613 349 559 295 q 667 477 667 402 q 612 607 667 555 q 485 659 558 659 z "},"¦":{"ha":304,"x_min":79,"x_max":226,"o":"m 79 975 l 226 975 l 226 433 l 79 433 l 79 975 m 79 246 l 226 246 l 226 -294 l 79 -294 l 79 246 z "},"§":{"ha":694,"x_min":62,"x_max":635,"o":"m 492 107 q 565 22 541 69 q 589 -81 589 -24 q 523 -231 589 -167 q 338 -294 456 -294 q 177 -248 239 -294 q 115 -129 115 -201 q 137 -66 115 -92 q 195 -41 159 -41 q 250 -61 227 -41 q 273 -113 273 -82 q 267 -151 273 -132 q 259 -184 259 -178 q 281 -219 259 -205 q 338 -233 304 -233 q 433 -202 399 -233 q 467 -132 467 -172 q 433 -52 467 -88 q 269 75 399 -16 q 107 213 153 157 q 62 351 62 269 q 200 596 62 488 q 129 683 153 638 q 105 777 105 728 q 168 927 105 860 q 356 994 231 994 q 525 944 467 994 q 583 830 583 894 q 558 765 583 789 q 503 742 534 742 q 447 766 469 742 q 425 825 425 789 q 431 863 425 840 q 437 886 437 880 q 417 922 437 910 q 359 933 398 933 q 268 903 304 933 q 232 829 232 873 q 261 759 232 792 q 361 675 290 725 q 528 552 477 595 q 607 455 578 508 q 635 345 635 402 q 492 107 635 207 m 454 141 q 522 269 522 202 q 483 370 522 321 q 321 505 444 418 l 285 530 q 243 561 250 557 q 175 431 175 501 q 211 337 175 387 q 454 141 246 288 z "},"©":{"ha":1071,"x_min":40,"x_max":1031,"o":"m 536 975 q 885 830 739 975 q 1031 479 1031 685 q 885 129 1031 275 q 535 -17 739 -17 q 185 129 330 -17 q 40 479 40 274 q 187 830 40 685 q 536 975 334 975 m 535 911 q 324 856 427 911 q 162 697 222 801 q 102 479 102 594 q 229 173 102 300 q 535 45 356 45 q 841 173 714 45 q 968 479 968 300 q 841 785 968 658 q 535 911 713 911 m 770 777 l 770 593 l 743 593 q 682 704 731 663 q 571 744 633 744 q 440 680 490 744 q 390 490 390 616 q 444 285 390 341 q 568 229 498 229 q 750 325 671 229 l 750 276 q 528 188 665 188 q 317 265 401 188 q 233 472 233 342 q 322 693 233 607 q 541 779 411 779 q 678 750 601 779 q 711 742 701 742 q 743 777 738 742 l 770 777 z "},"«":{"ha":694,"x_min":22,"x_max":671,"o":"m 671 666 l 510 354 l 671 39 l 621 39 l 331 354 l 621 666 l 671 666 m 365 666 l 202 354 l 365 39 l 311 39 l 22 354 l 311 666 l 365 666 z "},"¬":{"ha":926,"x_min":86,"x_max":840,"o":"m 86 709 l 840 709 l 840 244 l 699 244 l 699 568 l 86 568 l 86 709 z "},"®":{"ha":1071,"x_min":40,"x_max":1031,"o":"m 536 975 q 885 830 739 975 q 1031 479 1031 685 q 885 129 1031 275 q 535 -17 739 -17 q 185 129 330 -17 q 40 479 40 274 q 187 830 40 685 q 536 975 334 975 m 535 911 q 324 856 427 911 q 162 697 222 801 q 102 479 102 594 q 229 173 102 300 q 535 45 356 45 q 841 173 714 45 q 968 479 968 300 q 841 785 968 658 q 535 911 713 911 m 271 767 l 524 767 q 662 753 616 767 q 740 701 709 739 q 771 613 771 663 q 740 523 771 559 q 646 469 709 486 l 742 294 q 815 225 779 228 l 815 201 l 646 201 l 503 458 l 471 458 l 471 320 q 487 244 471 261 q 555 225 503 227 l 555 201 l 259 201 l 259 225 q 316 241 300 225 q 332 320 332 256 l 332 650 q 320 723 332 707 q 271 743 309 739 l 271 767 m 471 494 q 511 491 495 491 q 588 525 555 491 q 621 616 621 558 q 590 706 621 676 q 497 736 559 736 l 471 736 l 471 494 z "},"°":{"ha":550,"x_min":40,"x_max":509,"o":"m 275 975 q 439 908 370 975 q 509 741 509 841 q 440 575 509 644 q 275 506 372 506 q 109 575 177 506 q 40 741 40 644 q 109 906 40 838 q 275 975 178 975 m 275 886 q 172 844 215 886 q 129 741 129 801 q 172 637 129 680 q 275 595 214 595 q 378 638 335 595 q 420 741 420 681 q 377 844 420 801 q 275 886 334 886 z "},"±":{"ha":926,"x_min":86,"x_max":840,"o":"m 86 690 l 393 690 l 393 996 l 534 996 l 534 690 l 840 690 l 840 549 l 534 549 l 534 242 l 393 242 l 393 549 l 86 549 l 86 690 m 86 141 l 840 141 l 840 0 l 86 0 l 86 141 z "},"µ":{"ha":795,"x_min":41,"x_max":787,"o":"m 92 644 l 286 644 l 286 224 q 297 102 286 127 q 345 77 307 77 q 408 98 378 77 q 461 161 437 119 l 461 644 l 655 644 l 655 217 q 666 109 655 132 q 704 86 676 86 q 757 186 747 86 l 787 186 q 731 33 786 85 q 606 -19 675 -19 q 516 8 551 -19 q 466 90 481 36 q 368 8 418 36 q 262 -19 317 -19 q 159 20 211 -19 q 183 -134 159 -45 q 199 -216 199 -192 q 177 -283 199 -258 q 117 -309 155 -309 q 41 -227 41 -309 q 58 -130 41 -195 q 86 8 80 -43 q 92 182 92 59 l 92 644 z "},"¶":{"ha":782,"x_min":1,"x_max":781,"o":"m 450 901 l 450 -293 l 380 -293 l 380 302 q 89 401 176 309 q 1 635 1 494 q 65 832 1 762 q 194 928 128 903 q 471 954 259 954 l 781 954 l 781 923 l 750 923 q 683 908 705 923 q 654 872 661 893 q 648 780 648 852 l 648 -293 l 578 -293 l 578 901 l 450 901 z "},"·":{"ha":376,"x_min":77,"x_max":300,"o":"m 189 589 q 267 557 234 589 q 300 477 300 525 q 268 398 300 431 q 189 365 235 365 q 109 398 142 365 q 77 477 77 431 q 110 557 77 525 q 189 589 143 589 z "},"»":{"ha":694,"x_min":22,"x_max":671,"o":"m 22 666 l 73 666 l 363 354 l 73 39 l 22 39 l 184 354 l 22 666 m 330 666 l 382 666 l 671 354 l 382 39 l 330 39 l 492 354 l 330 666 z "},"Ё":{"ha":926,"x_min":25,"x_max":897,"o":"m 292 1220 q 362 1191 333 1220 q 392 1120 392 1162 q 362 1049 392 1078 q 292 1019 333 1019 q 221 1049 251 1019 q 192 1120 192 1078 q 221 1191 192 1161 q 292 1220 251 1220 m 635 1219 q 705 1191 675 1219 q 735 1120 735 1162 q 706 1050 735 1079 q 635 1021 677 1021 q 566 1050 595 1021 q 536 1120 536 1079 q 566 1190 536 1161 q 635 1219 595 1219 m 386 904 l 386 511 l 404 511 q 505 530 471 511 q 561 597 538 549 q 594 731 583 644 l 620 731 l 620 246 l 594 246 q 558 382 583 335 q 499 445 534 429 q 404 461 465 461 l 386 461 l 386 161 q 405 71 386 90 q 479 51 425 51 l 570 51 q 873 294 798 51 l 897 294 l 853 0 l 25 0 l 25 25 l 62 25 q 142 54 119 25 q 164 151 164 83 l 164 801 q 142 898 164 868 q 62 928 121 928 l 25 928 l 25 954 l 829 954 l 829 684 l 805 684 q 752 819 790 766 q 664 888 714 872 q 515 904 613 904 l 386 904 z "},"Ђ":{"ha":1143,"x_min":31,"x_max":1094,"o":"m 31 954 l 842 954 l 842 724 l 817 724 q 738 861 786 827 q 597 895 689 895 l 524 895 l 524 536 q 651 629 588 598 q 778 659 715 659 q 1007 562 920 659 q 1094 328 1094 464 q 1013 91 1094 193 q 811 -11 932 -11 q 712 25 764 -11 l 712 64 q 776 30 751 30 q 838 93 821 30 q 855 298 855 157 q 817 487 855 424 q 703 549 779 549 q 611 529 656 549 q 524 469 566 509 l 524 131 q 550 46 524 66 q 646 25 576 25 l 646 0 l 170 0 l 170 25 q 274 47 246 25 q 302 131 302 69 l 302 895 l 242 895 q 56 724 99 895 l 31 724 l 31 954 z "},"Ѓ":{"ha":897,"x_min":24,"x_max":884,"o":"m 678 1178 l 376 1024 l 275 1024 l 376 1178 l 678 1178 m 884 954 l 884 701 l 858 701 q 814 822 843 776 q 756 882 786 868 q 667 895 726 895 l 388 895 l 388 133 q 413 50 388 75 q 509 25 438 25 l 545 25 l 545 0 l 24 0 l 24 25 l 58 25 q 144 51 122 25 q 167 147 167 77 l 167 818 q 139 909 167 890 q 45 928 111 928 l 24 928 l 24 954 l 884 954 z "},"Є":{"ha":969,"x_min":51,"x_max":928,"o":"m 684 521 l 684 462 l 299 462 q 379 145 299 254 q 603 37 459 37 q 896 187 758 37 l 928 158 q 556 -19 776 -19 q 198 113 345 -19 q 51 479 51 244 q 192 832 51 689 q 536 975 332 975 q 752 934 659 975 q 821 913 798 913 q 890 975 878 913 l 916 975 l 916 662 l 890 662 q 594 915 827 915 q 378 805 456 915 q 299 521 299 696 l 684 521 z "},"Ѕ":{"ha":839,"x_min":47,"x_max":792,"o":"m 730 975 l 736 665 l 710 665 q 603 844 694 768 q 387 921 512 921 q 248 880 302 921 q 194 779 194 839 q 239 687 194 724 q 416 608 285 650 q 630 524 559 561 q 747 419 701 487 q 792 268 792 351 q 691 61 792 140 q 427 -19 589 -19 q 210 26 332 -19 q 149 42 168 42 q 75 -19 100 42 l 47 -19 l 47 330 l 74 330 q 193 111 97 193 q 420 30 290 30 q 577 71 518 30 q 636 181 636 111 q 581 294 636 250 q 389 385 526 337 q 189 467 253 432 q 86 562 124 502 q 48 697 48 621 q 140 895 48 814 q 373 975 232 975 q 581 926 471 975 q 654 902 635 902 q 704 975 704 902 l 730 975 z "},"І":{"ha":535,"x_min":23,"x_max":512,"o":"m 512 25 l 512 0 l 23 0 l 23 25 l 54 25 q 134 54 112 25 q 157 151 157 83 l 157 801 q 135 898 157 868 q 54 928 113 928 l 23 928 l 23 954 l 512 954 l 512 928 l 481 928 q 400 900 423 928 q 378 801 378 871 l 378 151 q 399 55 378 85 q 481 25 421 25 l 512 25 z "},"Ї":{"ha":535,"x_min":-5,"x_max":539,"o":"m 96 1220 q 165 1192 136 1220 q 195 1120 195 1163 q 166 1049 195 1078 q 96 1019 136 1019 q 25 1049 54 1019 q -5 1120 -5 1078 q 25 1191 -5 1162 q 96 1220 55 1220 m 439 1219 q 509 1191 479 1219 q 539 1120 539 1163 q 510 1049 539 1078 q 439 1021 480 1021 q 369 1050 399 1021 q 340 1120 340 1079 q 369 1190 340 1161 q 439 1219 399 1219 m 511 25 l 511 0 l 23 0 l 23 25 l 54 25 q 134 54 112 25 q 157 151 157 83 l 157 801 q 135 898 157 868 q 54 928 113 928 l 23 928 l 23 954 l 511 954 l 511 928 l 481 928 q 400 900 422 928 q 378 801 378 871 l 378 151 q 407 47 378 69 q 481 25 436 25 l 511 25 z "},"Ј":{"ha":767,"x_min":31,"x_max":744,"o":"m 246 928 l 246 954 l 744 954 l 744 928 l 715 928 q 642 907 670 928 q 613 801 613 886 l 613 283 q 585 126 613 188 q 480 22 557 64 q 315 -19 404 -19 q 106 41 180 -19 q 31 174 31 101 q 62 254 31 227 q 133 281 92 281 q 202 255 174 281 q 230 189 230 229 q 201 114 230 153 q 186 84 186 95 q 213 48 186 63 q 280 33 241 33 q 360 61 328 33 q 392 182 392 90 l 392 801 q 363 906 392 883 q 290 928 335 928 l 246 928 z "},"Љ":{"ha":1360,"x_min":-1,"x_max":1324,"o":"m 435 895 l 435 490 q 348 107 435 226 q 136 -11 262 -11 q 36 24 73 -11 q -1 113 -1 60 q 23 184 -1 156 q 89 212 48 212 q 168 128 161 212 q 202 70 174 70 q 320 172 265 70 q 374 463 374 273 l 374 801 q 352 906 374 884 q 267 928 330 928 l 245 928 l 245 954 l 956 954 l 956 928 q 880 902 899 926 q 861 819 861 879 l 861 521 q 1114 502 1032 521 q 1260 411 1196 482 q 1324 254 1324 340 q 1233 72 1324 144 q 1000 0 1141 0 l 528 0 l 528 25 q 615 52 591 25 q 638 143 638 79 l 638 895 l 435 895 m 861 462 l 861 160 q 874 71 861 95 q 928 47 887 47 q 1035 104 991 47 q 1078 246 1078 162 q 1027 401 1078 340 q 880 463 976 463 q 861 462 871 463 z "},"Њ":{"ha":1389,"x_min":23,"x_max":1354,"o":"m 370 521 l 644 521 l 644 827 q 622 905 644 885 q 536 928 600 925 l 536 954 l 963 954 l 963 928 q 887 903 908 928 q 866 818 866 877 l 866 521 q 1142 502 1057 521 q 1290 414 1226 484 q 1354 249 1354 344 q 1268 71 1354 142 q 994 0 1182 0 l 536 0 l 536 25 q 618 45 592 26 q 644 128 644 63 l 644 462 l 370 462 l 370 128 q 395 46 370 64 q 478 25 420 27 l 478 0 l 23 0 l 23 25 q 122 48 96 26 q 148 128 148 69 l 148 827 q 122 907 148 886 q 23 928 96 928 l 23 954 l 478 954 l 478 928 q 393 906 415 926 q 370 827 370 885 l 370 521 m 866 462 l 866 155 q 881 71 866 95 q 944 47 897 47 q 1058 104 1012 47 q 1105 247 1105 161 q 1072 373 1105 321 q 993 444 1038 425 q 866 462 947 462 z "},"Ћ":{"ha":1143,"x_min":24,"x_max":1119,"o":"m 517 536 q 648 629 585 598 q 772 659 712 659 q 915 619 855 659 q 993 527 975 578 q 1012 395 1012 475 l 1012 130 q 1035 52 1012 77 q 1119 25 1057 27 l 1119 0 l 693 0 l 693 25 q 789 125 789 30 l 789 387 q 758 507 789 477 q 682 536 727 536 q 601 520 642 536 q 517 471 559 504 l 517 130 q 545 44 517 64 q 640 25 572 25 l 640 0 l 163 0 l 163 25 q 272 50 249 25 q 296 130 296 74 l 296 895 l 236 895 q 50 724 93 895 l 24 724 l 24 954 l 789 954 l 789 724 l 764 724 q 685 861 733 827 q 545 895 636 895 l 517 895 l 517 536 z "},"Ќ":{"ha":1050,"x_min":25,"x_max":1028,"o":"m 751 1178 l 448 1024 l 348 1024 l 448 1178 l 751 1178 m 25 954 l 502 954 l 502 928 q 427 921 448 928 q 391 891 406 914 q 377 821 377 869 l 377 519 l 441 519 q 533 525 513 519 q 577 555 554 530 q 610 605 600 579 q 654 751 621 631 q 734 916 685 867 q 869 964 783 964 q 978 928 941 964 q 1014 841 1014 892 q 987 769 1014 798 q 923 740 961 740 q 842 831 851 740 q 834 871 839 863 q 817 880 830 880 q 703 705 747 880 q 653 558 674 592 q 596 489 633 524 q 730 387 674 475 l 895 122 q 1028 25 954 27 l 1028 0 l 730 0 l 479 397 q 433 450 452 441 q 377 460 414 460 l 377 132 q 390 64 377 87 q 425 33 404 41 q 502 25 446 26 l 502 0 l 25 0 l 25 25 q 112 35 89 26 q 145 64 134 43 q 156 140 156 85 l 156 814 q 145 889 156 868 q 113 919 135 911 q 25 928 92 927 l 25 954 z "},"Ў":{"ha":1056,"x_min":17,"x_max":1038,"o":"m 569 1025 q 366 1064 426 1025 q 305 1154 305 1103 q 325 1200 305 1182 q 373 1218 345 1218 q 458 1147 428 1218 q 566 1078 486 1078 q 640 1093 616 1078 q 684 1151 663 1109 q 769 1218 715 1218 q 817 1200 798 1218 q 837 1149 837 1181 q 772 1061 837 1096 q 569 1025 708 1025 m 17 954 l 467 954 l 467 928 l 440 928 q 360 889 360 928 q 380 836 360 869 l 644 399 l 842 790 q 866 865 866 837 q 753 928 866 928 l 730 928 l 730 954 l 1038 954 l 1038 928 q 965 895 988 918 q 905 800 941 872 l 593 180 q 506 43 556 105 q 368 -19 456 -19 q 256 13 298 -19 q 213 106 213 45 q 237 177 213 149 q 302 205 260 205 q 358 186 342 205 q 380 122 374 167 q 430 59 389 59 q 480 89 454 59 q 532 180 505 119 l 126 848 q 77 915 95 901 q 17 928 59 928 l 17 954 z "},"Џ":{"ha":1157,"x_min":26,"x_max":1131,"o":"m 591 -267 l 566 -267 q 343 0 562 0 l 26 0 l 26 25 q 111 33 88 25 q 145 62 134 41 q 157 132 157 83 l 157 821 q 146 890 157 869 q 112 920 135 911 q 26 928 90 928 l 26 954 l 503 954 l 503 928 q 405 905 433 927 q 378 817 378 882 l 378 59 l 779 59 l 779 817 q 751 906 779 884 q 654 928 723 928 l 654 954 l 1131 954 l 1131 928 l 1107 928 q 1023 905 1046 928 q 1000 821 1000 882 l 1000 132 q 1011 63 1000 84 q 1045 34 1022 42 q 1131 25 1068 25 l 1131 0 l 814 0 q 641 -75 689 0 q 591 -267 592 -151 z "},"А":{"ha":999,"x_min":20,"x_max":978,"o":"m 570 270 l 265 270 l 219 159 q 203 98 203 120 q 230 43 203 59 q 326 25 258 26 l 326 0 l 20 0 l 20 25 q 185 209 111 27 l 498 970 l 512 970 l 842 167 q 978 25 899 25 l 978 0 l 532 0 l 532 25 l 549 25 q 644 73 644 25 q 632 116 644 86 l 570 270 m 549 320 l 418 641 l 286 320 l 549 320 z "},"Б":{"ha":928,"x_min":26,"x_max":890,"o":"m 26 954 l 824 954 l 824 702 l 798 702 q 756 815 785 770 q 689 878 726 861 q 589 895 652 895 l 380 895 l 380 521 l 537 521 q 805 440 720 521 q 890 256 890 359 q 836 109 890 174 q 715 22 783 43 q 545 0 648 0 l 26 0 l 26 25 l 41 25 q 136 54 113 25 q 159 161 159 83 l 159 825 q 132 907 159 886 q 41 928 104 928 l 26 928 l 26 954 m 380 462 l 380 156 q 408 65 380 84 q 471 47 436 47 q 598 105 551 47 q 646 250 646 163 q 612 377 646 326 q 531 445 578 429 q 380 462 484 462 z "},"В":{"ha":926,"x_min":17,"x_max":888,"o":"m 623 502 q 812 421 735 486 q 888 257 888 357 q 838 116 888 177 q 705 28 787 56 q 530 0 623 0 l 17 0 l 17 25 l 45 25 q 126 54 104 25 q 148 151 148 83 l 148 801 q 119 906 148 884 q 45 928 90 928 l 26 928 l 26 954 l 491 954 q 760 889 671 954 q 848 721 848 825 q 792 579 848 634 q 623 502 736 524 m 369 903 l 369 520 l 389 520 q 557 568 501 520 q 614 713 614 616 q 583 826 614 779 q 511 888 553 873 q 397 903 469 903 l 369 903 m 369 470 l 369 148 q 387 70 369 90 q 450 50 405 50 q 592 106 541 50 q 643 250 643 163 q 586 403 643 336 q 389 470 529 470 l 369 470 z "},"Г":{"ha":897,"x_min":24,"x_max":884,"o":"m 884 954 l 884 701 l 858 701 q 814 822 843 776 q 756 882 786 868 q 667 895 726 895 l 388 895 l 388 133 q 413 50 388 75 q 509 25 438 25 l 545 25 l 545 0 l 24 0 l 24 25 l 58 25 q 144 51 122 25 q 167 147 167 77 l 167 818 q 139 909 167 890 q 45 928 111 928 l 24 928 l 24 954 l 884 954 z "},"Д":{"ha":999,"x_min":2,"x_max":974,"o":"m 184 954 l 974 954 l 974 928 q 866 906 892 928 q 840 805 840 883 l 840 141 q 867 52 840 75 q 974 28 895 30 l 974 -267 l 949 -267 q 865 -80 943 -161 q 642 0 786 0 l 337 0 q 117 -78 196 0 q 27 -267 37 -155 l 2 -267 l 2 28 q 233 231 149 52 q 316 831 316 410 q 292 905 316 882 q 208 928 269 928 l 184 928 l 184 954 m 648 895 l 376 895 l 376 812 q 343 398 376 622 q 189 59 311 174 l 577 59 q 635 71 623 59 q 648 127 648 83 l 648 895 z "},"Е":{"ha":926,"x_min":25,"x_max":897,"o":"m 386 904 l 386 511 l 404 511 q 505 530 471 511 q 561 597 538 549 q 594 731 583 646 l 620 731 l 620 246 l 594 246 q 558 382 584 334 q 499 445 533 429 q 404 461 465 461 l 386 461 l 386 161 q 403 73 386 96 q 479 51 420 51 l 570 51 q 873 294 799 51 l 897 294 l 854 0 l 25 0 l 25 25 l 62 25 q 136 46 107 25 q 164 151 164 67 l 164 801 q 135 906 164 884 q 62 928 106 928 l 25 928 l 25 954 l 829 954 l 829 684 l 805 684 q 752 820 791 766 q 663 888 713 873 q 515 904 612 904 l 386 904 z "},"Ж":{"ha":1361,"x_min":20,"x_max":1341,"o":"m 456 0 l 456 25 l 471 25 q 554 52 534 25 q 575 145 575 79 l 575 465 q 526 451 543 465 q 494 408 509 437 l 288 0 l 20 0 l 20 25 q 110 96 71 26 l 248 345 q 336 464 300 438 q 426 497 373 490 q 364 565 384 522 q 292 789 345 607 q 231 878 266 878 q 207 834 210 878 q 127 740 199 740 q 62 766 87 740 q 37 838 37 793 q 76 931 37 897 q 180 964 115 964 q 271 942 237 964 q 321 882 305 920 q 367 730 337 845 q 442 556 403 595 q 543 517 481 517 l 575 517 l 575 809 q 555 901 575 873 q 471 928 535 928 l 456 928 l 456 954 l 905 954 l 905 928 l 889 928 q 806 901 827 928 q 786 809 786 874 l 786 517 l 817 517 q 916 553 876 517 q 994 730 956 589 q 1040 882 1025 845 q 1089 941 1055 918 q 1181 964 1124 964 q 1284 932 1244 964 q 1324 838 1324 900 q 1300 767 1324 795 q 1234 740 1276 740 q 1154 834 1162 740 q 1131 878 1151 878 q 1101 865 1114 878 q 1069 789 1087 851 q 997 564 1017 606 q 935 497 977 522 q 1106 359 1040 486 q 1113 345 1109 352 l 1252 96 q 1341 25 1292 26 l 1341 0 l 1074 0 l 867 408 q 834 451 852 437 q 786 465 817 465 l 786 145 q 806 52 786 79 q 889 25 827 25 l 905 25 l 905 0 l 456 0 z "},"З":{"ha":758,"x_min":34,"x_max":709,"o":"m 78 975 l 103 975 q 138 928 110 928 q 184 941 155 928 q 364 975 258 975 q 594 902 513 975 q 676 733 676 828 q 617 590 676 648 q 439 503 558 532 q 638 415 566 486 q 709 245 709 343 q 606 52 709 123 q 346 -19 503 -19 q 34 116 142 -19 l 64 146 q 271 39 148 39 q 420 103 377 39 q 463 252 463 167 q 411 409 463 357 q 254 460 359 460 l 212 460 l 212 521 l 254 521 q 395 572 348 521 q 441 724 441 623 q 405 871 441 822 q 295 920 368 920 q 156 851 203 920 q 110 692 110 782 l 78 692 l 78 975 z "},"И":{"ha":1157,"x_min":25,"x_max":1132,"o":"m 25 954 l 502 954 l 502 928 q 405 907 432 928 q 378 809 378 886 l 378 245 l 780 818 q 757 904 780 879 q 656 928 734 928 l 656 954 l 1132 954 l 1132 928 l 1117 928 q 1026 906 1052 928 q 1000 826 1000 884 l 1000 134 q 1013 65 1000 86 q 1046 36 1025 44 q 1132 25 1067 27 l 1132 0 l 656 0 l 656 25 q 754 50 728 25 q 780 145 780 74 l 780 712 l 378 140 q 404 49 378 73 q 502 25 429 25 l 502 0 l 25 0 l 25 25 l 40 25 q 132 47 107 25 q 157 127 157 70 l 157 826 q 133 905 157 882 q 40 928 110 928 l 25 928 l 25 954 z "},"Й":{"ha":1157,"x_min":25,"x_max":1132,"o":"m 589 1025 q 385 1064 446 1025 q 325 1154 325 1103 q 345 1200 325 1182 q 393 1218 364 1218 q 477 1147 448 1218 q 585 1078 506 1078 q 659 1093 635 1078 q 703 1151 683 1109 q 789 1218 735 1218 q 837 1200 817 1218 q 857 1149 857 1181 q 792 1061 857 1096 q 589 1025 728 1025 m 25 954 l 502 954 l 502 928 q 405 907 432 928 q 378 809 378 886 l 378 221 l 780 842 q 748 910 775 891 q 656 928 722 928 l 656 954 l 1132 954 l 1132 928 l 1117 928 q 1026 906 1052 928 q 1000 826 1000 884 l 1000 134 q 1013 65 1000 86 q 1046 36 1025 44 q 1132 25 1067 27 l 1132 0 l 656 0 l 656 25 q 754 50 728 25 q 780 145 780 74 l 780 732 l 378 112 q 410 44 383 62 q 502 25 437 25 l 502 0 l 25 0 l 25 25 l 40 25 q 132 47 107 25 q 157 127 157 70 l 157 826 q 133 905 157 882 q 40 928 110 928 l 25 928 l 25 954 z "},"К":{"ha":1050,"x_min":25,"x_max":1028,"o":"m 25 954 l 502 954 l 502 928 q 427 921 448 928 q 391 891 406 914 q 377 821 377 869 l 377 519 l 441 519 q 533 525 513 519 q 577 555 554 530 q 610 605 600 579 q 654 751 621 631 q 734 916 685 867 q 869 964 783 964 q 978 928 941 964 q 1014 841 1014 892 q 987 769 1014 798 q 923 740 961 740 q 842 831 851 740 q 834 871 839 863 q 817 880 830 880 q 703 705 747 880 q 653 558 674 592 q 596 489 633 524 q 730 387 674 475 l 895 122 q 1028 25 954 27 l 1028 0 l 730 0 l 479 397 q 433 450 452 441 q 377 460 414 460 l 377 132 q 390 64 377 87 q 425 33 404 41 q 502 25 446 26 l 502 0 l 25 0 l 25 25 q 112 35 89 26 q 145 64 134 43 q 156 140 156 85 l 156 814 q 145 889 156 868 q 113 919 135 911 q 25 928 92 927 l 25 954 z "},"Л":{"ha":1000,"x_min":-1,"x_max":977,"o":"m 392 895 l 392 619 q 340 126 392 264 q 150 -11 289 -11 q 35 26 71 -11 q -1 113 -1 63 q 24 184 -1 157 q 89 212 50 212 q 168 130 158 212 q 179 81 172 92 q 204 69 186 69 q 297 188 263 69 q 332 594 332 306 l 332 801 q 309 907 332 885 q 224 928 287 928 l 202 928 l 202 954 l 977 954 l 977 928 l 957 928 q 867 903 890 928 q 844 809 844 878 l 844 144 q 866 50 844 75 q 957 25 888 25 l 977 25 l 977 0 l 500 0 l 500 25 l 517 25 q 602 51 578 25 q 625 134 625 76 l 625 895 l 392 895 z "},"М":{"ha":1375,"x_min":20,"x_max":1355,"o":"m 690 298 l 985 954 l 1355 954 l 1355 928 l 1331 928 q 1252 900 1274 928 q 1230 801 1230 871 l 1230 151 q 1251 55 1230 85 q 1331 25 1272 25 l 1355 25 l 1355 0 l 871 0 l 871 25 l 905 25 q 985 54 963 25 q 1008 151 1008 82 l 1008 882 l 610 0 l 591 0 l 195 875 l 195 174 q 205 85 195 110 q 245 42 214 60 q 313 25 275 25 l 330 25 l 330 0 l 20 0 l 20 25 q 94 44 62 25 q 136 89 125 62 q 146 174 146 115 l 146 801 q 124 898 146 868 q 43 928 102 928 l 20 928 l 20 954 l 394 954 l 690 298 z "},"Н":{"ha":1143,"x_min":23,"x_max":1120,"o":"m 774 460 l 369 460 l 369 151 q 390 55 369 85 q 471 25 412 25 l 496 25 l 496 0 l 23 0 l 23 25 l 45 25 q 124 54 102 25 q 147 151 147 82 l 147 801 q 125 899 147 869 q 45 928 103 928 l 23 928 l 23 954 l 496 954 l 496 928 l 471 928 q 391 900 414 928 q 369 801 369 871 l 369 519 l 774 519 l 774 801 q 752 899 774 869 q 671 928 730 928 l 650 928 l 650 954 l 1120 954 l 1120 928 l 1097 928 q 1018 900 1040 928 q 995 801 995 871 l 995 151 q 1017 55 995 85 q 1097 25 1038 25 l 1120 25 l 1120 0 l 650 0 l 650 25 l 671 25 q 751 54 728 25 q 774 151 774 82 l 774 460 z "},"О":{"ha":1143,"x_min":58,"x_max":1085,"o":"m 1085 473 q 945 123 1085 264 q 572 -19 804 -19 q 318 36 430 -19 q 132 206 206 92 q 58 479 58 320 q 135 754 58 640 q 328 922 212 869 q 570 975 444 975 q 940 836 794 975 q 1085 473 1085 696 m 838 467 q 764 806 838 688 q 572 924 690 924 q 378 808 452 924 q 304 479 304 692 q 374 155 304 281 q 569 28 444 28 q 764 146 691 28 q 838 467 838 264 z "},"П":{"ha":1157,"x_min":26,"x_max":1131,"o":"m 779 895 l 378 895 l 378 136 q 406 48 378 71 q 503 25 434 26 l 503 0 l 26 0 l 26 25 l 50 25 q 134 48 111 25 q 157 132 157 71 l 157 821 q 146 890 157 869 q 112 920 135 911 q 26 928 90 928 l 26 954 l 1131 954 l 1131 928 q 1046 921 1069 928 q 1012 892 1023 913 q 1000 821 1000 871 l 1000 132 q 1011 63 1000 84 q 1045 34 1022 42 q 1131 25 1068 25 l 1131 0 l 654 0 l 654 25 q 752 49 724 27 q 779 136 779 71 l 779 895 z "},"Р":{"ha":926,"x_min":25,"x_max":893,"o":"m 382 435 l 382 151 q 404 55 382 85 q 484 25 425 25 l 510 25 l 510 0 l 25 0 l 25 25 l 59 25 q 139 54 117 25 q 161 151 161 83 l 161 801 q 140 899 161 869 q 59 928 118 928 l 25 928 l 25 954 l 510 954 q 802 877 711 954 q 893 696 893 800 q 805 515 893 595 q 484 435 717 435 l 382 435 m 382 905 l 382 486 l 454 486 q 605 537 555 486 q 654 690 654 588 q 614 847 654 790 q 454 905 573 905 l 382 905 z "},"С":{"ha":999,"x_min":64,"x_max":943,"o":"m 943 974 l 943 654 l 916 654 q 804 850 892 787 q 620 914 716 914 q 468 866 536 914 q 356 724 400 818 q 313 476 313 630 q 399 145 313 250 q 614 39 486 39 q 795 92 710 39 q 925 219 880 144 l 925 137 q 570 -19 783 -19 q 199 124 334 -19 q 64 461 64 267 q 214 825 64 675 q 561 975 363 975 q 776 928 659 975 q 849 907 824 907 q 916 974 903 907 l 943 974 z "},"Т":{"ha":926,"x_min":33,"x_max":892,"o":"m 892 954 l 892 702 l 867 702 q 663 901 840 901 l 574 901 l 574 151 q 595 55 574 85 q 676 25 617 25 l 711 25 l 711 0 l 214 0 l 214 25 l 250 25 q 324 46 296 25 q 352 151 352 67 l 352 901 l 255 901 q 162 882 199 901 q 96 812 125 863 q 61 702 67 762 l 33 702 l 33 954 l 892 954 z "},"У":{"ha":1056,"x_min":17,"x_max":1038,"o":"m 17 954 l 467 954 l 467 928 l 440 928 q 360 889 360 928 q 380 836 360 869 l 644 399 l 842 790 q 866 865 866 837 q 753 928 866 928 l 730 928 l 730 954 l 1038 954 l 1038 928 q 965 895 988 918 q 905 800 941 872 l 593 180 q 506 43 556 105 q 368 -19 456 -19 q 256 13 298 -19 q 213 106 213 45 q 237 177 213 149 q 302 205 260 205 q 358 186 342 205 q 380 122 374 167 q 430 59 389 59 q 480 89 454 59 q 532 180 505 119 l 126 848 q 77 915 95 901 q 17 928 59 928 l 17 954 z "},"Ф":{"ha":1219,"x_min":54,"x_max":1166,"o":"m 852 954 l 852 928 l 825 928 q 742 903 764 928 q 720 819 720 877 q 944 789 854 819 q 1100 678 1034 760 q 1166 481 1166 597 q 1111 302 1166 374 q 965 187 1056 230 q 720 144 875 144 q 741 52 720 79 q 825 25 761 25 l 852 25 l 852 0 l 367 0 l 367 25 l 395 25 q 480 53 460 25 q 500 144 500 80 q 263 183 353 144 q 114 295 174 222 q 54 481 54 369 q 90 634 54 568 q 196 747 125 700 q 333 806 267 793 q 500 819 399 819 q 478 903 500 878 q 395 928 456 928 l 367 928 l 367 954 l 852 954 m 500 770 q 383 751 426 770 q 307 668 340 732 q 275 486 275 603 q 304 305 275 370 q 379 216 333 239 q 500 193 426 193 l 500 770 m 720 770 l 720 193 q 845 219 798 193 q 919 309 892 244 q 945 490 945 374 q 913 667 945 602 q 838 751 880 732 q 720 770 796 770 z "},"Х":{"ha":999,"x_min":23,"x_max":975,"o":"m 582 557 l 843 144 q 975 25 917 28 l 975 0 l 532 0 l 532 25 q 620 70 620 25 q 582 151 620 91 l 443 374 l 294 175 q 252 85 252 120 q 374 25 252 31 l 374 0 l 23 0 l 23 25 q 138 73 87 25 q 237 184 190 121 l 412 420 l 161 817 q 94 902 120 880 q 23 928 67 924 l 23 954 l 481 954 l 481 928 q 408 918 427 928 q 389 882 389 909 q 412 823 389 861 l 552 602 l 664 753 q 713 857 713 820 q 611 928 713 928 l 611 954 l 945 954 l 945 928 q 846 893 885 926 q 764 802 807 860 l 582 557 z "},"Ц":{"ha":1157,"x_min":41,"x_max":1116,"o":"m 41 954 l 493 954 l 493 928 q 401 907 425 928 q 377 821 377 885 l 377 127 q 389 71 377 83 q 449 59 401 59 l 707 59 q 768 71 755 59 q 780 127 780 83 l 780 821 q 755 909 780 890 q 664 928 730 928 l 664 954 l 1116 954 l 1116 928 q 1026 909 1051 928 q 1000 821 1000 890 l 1000 132 q 1024 46 1000 68 q 1116 25 1048 25 l 1116 -267 l 1090 -267 q 1047 -134 1086 -196 q 944 -36 1008 -73 q 736 0 879 0 l 41 0 l 41 25 q 133 47 109 25 q 156 132 156 69 l 156 821 q 132 907 156 886 q 41 928 109 928 l 41 954 z "},"Ч":{"ha":1071,"x_min":16,"x_max":1050,"o":"m 16 954 l 496 954 l 496 928 q 398 908 425 928 q 370 802 370 887 l 370 552 q 400 474 370 500 q 488 448 429 448 q 696 501 590 448 l 696 802 q 668 908 696 888 q 570 928 640 928 l 570 954 l 1050 954 l 1050 928 q 966 921 988 928 q 930 891 944 913 q 916 826 916 869 l 916 127 q 930 63 916 85 q 966 33 944 40 q 1050 25 988 26 l 1050 0 l 570 0 l 570 25 q 671 51 647 25 q 696 152 696 77 l 696 445 q 548 388 648 419 q 373 357 448 357 q 231 388 281 357 q 165 458 180 420 q 150 593 150 496 l 150 826 q 136 891 150 868 q 100 921 122 913 q 16 928 78 928 l 16 954 z "},"Ш":{"ha":1522,"x_min":24,"x_max":1498,"o":"m 24 954 l 427 954 l 427 928 q 360 901 380 926 q 340 810 340 876 l 340 127 q 352 70 340 81 q 412 59 364 59 l 587 59 q 639 71 627 59 q 651 127 651 83 l 651 810 q 631 901 651 875 q 564 928 611 926 l 564 954 l 959 954 l 959 928 q 892 901 912 926 q 871 810 871 876 l 871 127 q 883 70 871 81 q 941 59 894 59 l 1113 59 q 1171 71 1158 59 q 1183 127 1183 82 l 1183 810 q 1163 901 1183 875 q 1096 928 1143 926 l 1096 954 l 1498 954 l 1498 928 q 1431 906 1457 927 q 1404 819 1404 885 l 1404 135 q 1425 53 1404 80 q 1498 25 1447 26 l 1498 0 l 24 0 l 24 25 q 92 47 64 26 q 119 135 119 68 l 119 819 q 97 900 119 873 q 24 928 75 927 l 24 954 z "},"Щ":{"ha":1522,"x_min":24,"x_max":1498,"o":"m 24 0 l 24 25 q 92 48 64 26 q 119 136 119 69 l 119 819 q 97 900 119 873 q 24 928 75 927 l 24 954 l 427 954 l 427 928 q 360 901 380 926 q 340 810 340 876 l 340 127 l 339 106 q 355 68 339 77 q 412 59 370 59 l 587 59 q 639 71 627 59 q 651 127 651 83 l 651 810 q 631 901 651 875 q 564 928 611 926 l 564 954 l 959 954 l 959 928 q 892 901 912 926 q 871 810 871 876 l 871 127 q 883 70 871 81 q 941 59 894 59 l 1113 59 q 1171 71 1158 59 q 1183 127 1183 82 l 1183 810 q 1163 901 1183 875 q 1096 928 1143 926 l 1096 954 l 1498 954 l 1498 928 q 1431 906 1457 927 q 1404 819 1404 885 l 1404 136 q 1425 53 1404 80 q 1498 25 1447 26 l 1498 -267 l 1473 -267 q 1429 -134 1468 -196 q 1324 -36 1390 -72 q 1118 0 1259 0 l 24 0 z "},"Ъ":{"ha":1071,"x_min":23,"x_max":1025,"o":"m 23 954 l 646 954 l 646 928 q 538 906 564 928 q 513 817 513 884 l 513 521 l 655 521 q 926 450 827 521 q 1025 260 1025 380 q 973 117 1025 182 q 843 26 921 52 q 640 0 765 0 l 159 0 l 159 25 l 180 25 q 263 46 235 25 q 292 142 292 67 l 292 895 l 269 895 q 159 880 197 895 q 93 824 121 864 q 48 702 64 783 l 23 702 l 23 954 m 513 462 l 513 158 q 531 71 513 95 q 593 47 549 47 q 723 98 669 47 q 777 243 777 149 q 722 400 777 338 q 513 462 666 462 z "},"Ы":{"ha":1389,"x_min":26,"x_max":1364,"o":"m 1364 25 l 1364 0 l 876 0 l 876 25 l 907 25 q 987 54 965 25 q 1010 151 1010 83 l 1010 801 q 988 898 1010 868 q 907 928 966 928 l 876 928 l 876 954 l 1364 954 l 1364 928 l 1334 928 q 1254 900 1276 928 q 1231 801 1231 871 l 1231 151 q 1253 55 1231 85 q 1334 25 1274 25 l 1364 25 m 26 954 l 516 954 l 516 928 q 409 907 436 928 q 381 818 381 885 l 381 521 l 530 521 q 730 490 660 521 q 846 397 800 460 q 892 258 892 334 q 806 80 892 161 q 519 0 719 0 l 26 0 l 26 25 q 136 48 111 25 q 160 147 160 71 l 160 806 q 135 906 160 884 q 26 928 111 928 l 26 954 m 381 462 l 381 169 q 404 73 381 100 q 474 47 427 47 q 593 100 541 47 q 646 243 646 154 q 594 399 646 336 q 440 462 542 462 l 381 462 z "},"Ь":{"ha":926,"x_min":24,"x_max":890,"o":"m 24 954 l 513 954 l 513 928 q 406 907 433 928 q 378 818 378 885 l 378 521 l 527 521 q 727 490 657 521 q 843 397 797 460 q 890 258 890 334 q 803 80 890 161 q 516 0 716 0 l 24 0 l 24 25 q 133 48 109 25 q 157 147 157 71 l 157 806 q 133 906 157 884 q 24 928 108 928 l 24 954 m 378 462 l 378 169 q 401 73 378 100 q 471 47 425 47 q 591 100 538 47 q 643 243 643 154 q 591 399 643 336 q 437 462 539 462 l 378 462 z "},"Э":{"ha":969,"x_min":41,"x_max":918,"o":"m 285 521 l 285 462 l 670 462 q 590 145 670 254 q 366 37 510 37 q 73 187 211 37 l 41 158 q 413 -19 193 -19 q 771 113 625 -19 q 918 479 918 244 q 778 832 918 689 q 433 975 637 975 q 217 934 311 975 q 149 913 172 913 q 79 975 92 913 l 54 975 l 54 662 l 79 662 q 375 915 142 915 q 591 805 513 915 q 670 521 670 696 l 285 521 z "},"Ю":{"ha":1600,"x_min":23,"x_max":1549,"o":"m 376 518 l 527 518 q 677 841 538 706 q 1037 975 817 975 q 1298 915 1188 975 q 1478 745 1408 854 q 1549 483 1549 635 q 1399 119 1549 258 q 1037 -19 1249 -19 q 769 49 890 -19 q 588 225 648 117 q 527 459 528 334 l 376 459 l 376 116 q 399 46 376 66 q 482 25 423 25 l 498 25 l 498 0 l 23 0 l 23 25 l 43 25 q 111 38 85 25 q 146 72 138 51 q 155 150 155 93 l 155 804 q 146 882 155 860 q 110 916 137 903 q 43 928 83 928 l 23 928 l 23 954 l 498 954 l 498 928 l 482 928 q 398 908 420 928 q 376 838 376 887 l 376 518 m 772 486 q 850 144 772 256 q 1038 32 929 32 q 1227 153 1151 32 q 1303 473 1303 273 q 1228 810 1303 694 q 1038 926 1154 926 q 847 806 922 926 q 772 486 772 686 z "},"Я":{"ha":999,"x_min":27,"x_max":975,"o":"m 621 435 l 621 130 q 595 47 621 70 q 500 25 569 25 l 486 25 l 486 0 l 975 0 l 975 25 l 961 25 q 867 47 893 25 q 840 130 840 68 l 840 823 q 867 907 840 885 q 961 928 893 928 l 975 928 l 975 954 l 500 954 q 223 878 307 954 q 138 690 138 802 q 191 542 138 601 q 349 454 243 483 l 152 140 q 27 25 81 28 l 27 0 l 306 0 l 578 435 l 621 435 m 621 903 l 621 486 l 568 486 q 409 543 454 486 q 365 694 365 599 q 394 821 365 774 q 467 886 422 869 q 587 903 512 903 l 621 903 z "},"а":{"ha":694,"x_min":56,"x_max":675,"o":"m 662 96 l 675 83 q 522 -19 627 -19 q 434 7 465 -19 q 396 83 403 33 q 353 52 387 77 q 184 -19 260 -19 q 95 18 134 -19 q 56 114 56 54 q 121 245 56 184 q 396 402 185 306 l 396 486 q 391 559 396 539 q 365 594 387 578 q 307 609 342 609 q 240 593 269 609 q 212 553 212 577 q 229 521 212 540 q 256 459 256 488 q 231 406 256 426 q 167 385 205 385 q 93 409 121 385 q 66 471 66 433 q 149 601 66 543 q 356 659 233 659 q 496 634 446 659 q 567 569 546 609 q 587 454 587 530 l 587 199 q 595 92 587 117 q 626 68 602 68 q 662 96 646 68 m 396 353 q 246 174 246 276 q 266 119 246 139 q 313 99 285 99 q 354 108 334 99 q 396 134 375 117 l 396 353 z "},"б":{"ha":694,"x_min":37,"x_max":658,"o":"m 623 975 l 648 975 q 567 836 626 888 q 433 783 508 783 q 374 787 410 783 q 335 789 349 789 q 161 710 226 789 q 94 488 96 632 q 355 659 184 659 q 567 567 477 659 q 658 319 658 474 q 567 73 658 164 q 354 -19 475 -19 q 131 74 225 -19 q 37 372 37 168 q 91 722 37 587 q 225 906 144 857 q 450 954 306 954 q 490 954 473 954 q 540 951 528 951 q 623 975 585 951 m 353 614 q 286 583 314 614 q 250 497 258 551 q 241 313 241 442 q 266 92 241 156 q 349 27 290 27 q 413 59 386 27 q 448 146 441 91 q 455 359 455 201 q 433 557 455 501 q 353 614 411 614 z "},"в":{"ha":704,"x_min":37,"x_max":660,"o":"m 37 644 l 366 644 q 555 599 497 644 q 614 484 614 554 q 479 340 614 371 q 613 287 566 334 q 660 174 660 239 q 590 43 660 87 q 382 0 521 0 l 37 0 l 37 25 q 85 53 72 31 q 98 130 98 74 l 98 526 q 37 619 98 614 l 37 644 m 290 357 q 394 390 357 357 q 431 479 431 422 q 395 568 431 534 q 290 602 359 602 l 290 357 m 290 315 l 290 107 q 299 57 290 71 q 336 43 309 43 q 422 84 386 43 q 458 184 458 125 q 416 286 458 258 q 290 315 373 315 z "},"г":{"ha":587,"x_min":47,"x_max":577,"o":"m 47 644 l 577 644 l 577 477 l 551 477 q 520 571 542 541 q 419 602 498 602 l 290 602 l 290 129 q 302 48 290 63 q 341 25 315 33 l 341 0 l 47 0 l 47 25 q 89 55 79 35 q 98 129 98 75 l 98 515 q 89 590 98 570 q 47 619 79 609 l 47 644 z "},"д":{"ha":715,"x_min":1,"x_max":686,"o":"m 686 25 l 686 -170 l 660 -170 q 416 0 647 0 l 271 0 q 26 -170 41 0 l 1 -170 l 1 25 q 151 179 96 33 q 206 511 206 326 q 185 600 206 581 q 115 619 165 619 l 115 644 l 666 644 l 666 619 q 624 590 635 611 q 612 516 612 568 l 612 130 q 627 50 612 72 q 686 25 642 28 m 259 602 l 259 522 q 226 234 259 365 q 137 43 193 104 l 345 43 q 413 64 397 43 q 430 141 430 85 l 430 602 l 259 602 z "},"е":{"ha":607,"x_min":32,"x_max":581,"o":"m 555 191 l 581 176 q 315 -19 491 -19 q 106 76 180 -19 q 32 309 32 170 q 120 558 32 458 q 321 659 208 659 q 504 571 427 659 q 581 342 581 483 l 216 342 q 276 156 222 227 q 405 85 331 85 q 555 191 496 85 m 216 388 l 410 388 q 411 433 411 411 q 385 571 411 528 q 318 614 358 614 q 247 562 277 614 q 216 388 216 509 z "},"ж":{"ha":999,"x_min":26,"x_max":973,"o":"m 591 357 l 605 357 q 662 381 637 357 q 710 480 688 405 q 775 621 743 591 q 852 650 808 650 q 929 622 896 650 q 962 542 962 593 q 942 477 962 502 q 890 452 922 452 q 825 542 827 452 q 809 582 825 582 q 768 522 784 582 q 695 351 730 382 q 825 262 787 343 l 915 75 q 973 25 938 26 l 973 0 l 764 0 l 634 275 q 591 314 616 313 l 591 122 q 605 49 591 70 q 653 25 618 28 l 653 0 l 346 0 l 346 25 q 394 49 380 28 q 408 122 408 70 l 408 314 q 365 275 382 312 l 234 0 l 26 0 l 26 25 q 84 75 61 27 l 174 262 q 303 351 212 343 q 231 522 270 381 q 191 582 215 582 q 173 542 174 582 q 109 452 171 452 q 57 477 77 452 q 37 541 37 502 q 69 620 37 590 q 147 650 100 650 q 218 627 186 650 q 288 480 251 603 q 319 399 309 414 q 356 370 330 384 q 393 357 382 357 l 408 357 l 408 522 q 394 594 408 574 q 346 619 380 615 l 346 644 l 653 644 l 653 619 q 605 594 618 615 q 591 522 591 574 l 591 357 z "},"з":{"ha":579,"x_min":16,"x_max":540,"o":"m 201 314 l 201 357 q 321 483 321 357 q 290 578 321 547 q 213 609 260 609 q 77 459 105 609 l 52 459 l 61 659 l 86 659 q 117 631 96 631 q 146 637 127 631 q 290 659 220 659 q 450 611 394 659 q 507 500 507 563 q 466 404 507 449 q 347 344 425 359 q 494 278 448 328 q 540 170 540 229 q 467 35 540 89 q 270 -19 393 -19 q 16 114 87 -19 l 37 127 q 201 49 115 49 q 301 86 264 49 q 339 186 339 123 q 301 278 339 243 q 201 314 264 313 z "},"и":{"ha":757,"x_min":45,"x_max":711,"o":"m 45 644 l 344 644 l 344 619 q 291 517 291 610 l 291 209 l 467 528 q 414 619 467 608 l 414 644 l 711 644 l 711 619 q 659 517 659 610 l 659 126 q 670 54 659 76 q 711 25 682 33 l 711 0 l 414 0 l 414 25 q 467 126 467 35 l 467 433 l 291 117 q 344 25 291 36 l 344 0 l 45 0 l 45 25 q 98 126 98 35 l 98 517 q 86 590 98 568 q 45 619 75 612 l 45 644 z "},"й":{"ha":757,"x_min":45,"x_max":711,"o":"m 385 749 q 210 783 277 749 q 144 874 144 817 q 161 922 144 905 q 203 940 179 940 q 286 849 256 940 q 376 788 304 788 q 442 800 423 788 q 472 846 460 812 q 556 940 503 940 q 597 923 580 940 q 615 874 615 905 q 553 782 615 815 q 385 749 491 749 m 45 644 l 344 644 l 344 619 q 291 517 291 610 l 291 209 l 467 528 q 414 619 467 608 l 414 644 l 711 644 l 711 619 q 659 517 659 610 l 659 126 q 670 54 659 76 q 711 25 682 33 l 711 0 l 414 0 l 414 25 q 467 126 467 35 l 467 433 l 291 117 q 344 25 291 36 l 344 0 l 45 0 l 45 25 q 98 126 98 35 l 98 517 q 86 590 98 568 q 45 619 75 612 l 45 644 z "},"к":{"ha":778,"x_min":35,"x_max":754,"o":"m 35 644 l 351 644 l 351 619 q 288 515 288 613 l 288 357 q 393 382 362 357 q 457 505 424 407 q 531 624 488 597 q 617 650 574 650 q 708 620 672 650 q 745 541 745 589 q 723 476 745 506 q 663 447 702 447 q 587 535 591 447 q 581 576 585 567 q 563 585 576 585 q 530 564 544 585 q 490 472 515 544 q 422 351 458 380 q 505 323 462 347 q 591 221 549 300 q 600 207 595 214 l 657 108 q 754 25 703 30 l 754 0 l 517 0 l 334 315 l 288 315 l 288 129 q 306 46 288 64 q 351 25 324 28 l 351 0 l 35 0 l 35 25 q 98 129 98 31 l 98 515 q 35 619 98 613 l 35 644 z "},"л":{"ha":753,"x_min":5,"x_max":724,"o":"m 167 644 l 724 644 l 724 619 q 670 595 686 616 q 654 524 654 575 l 654 120 q 670 49 654 69 q 724 25 685 28 l 724 0 l 386 0 l 386 25 q 464 117 464 28 l 464 602 l 283 602 l 283 333 q 246 73 283 152 q 125 -6 209 -6 q 41 23 77 -6 q 5 100 5 52 q 30 168 5 142 q 91 195 54 195 q 145 170 127 195 q 164 115 164 145 l 164 87 q 178 64 164 64 q 225 133 210 64 q 241 341 241 203 l 241 497 q 225 593 241 569 q 167 619 210 616 l 167 644 z "},"м":{"ha":899,"x_min":30,"x_max":869,"o":"m 30 644 l 290 644 l 451 244 l 610 644 l 869 644 l 869 619 q 815 596 829 616 q 800 524 800 575 l 800 120 q 814 49 800 70 q 869 25 829 28 l 869 0 l 532 0 l 532 25 q 591 50 573 27 q 610 124 610 72 l 610 536 l 391 0 l 356 0 l 142 528 l 142 112 q 215 25 142 26 l 215 0 l 30 0 l 30 25 q 84 48 69 28 q 99 120 99 69 l 99 524 q 84 595 99 574 q 30 619 70 616 l 30 644 z "},"н":{"ha":754,"x_min":45,"x_max":709,"o":"m 290 356 l 465 356 l 465 516 q 454 590 465 568 q 412 619 442 611 l 412 644 l 709 644 l 709 619 q 667 590 679 611 q 656 516 656 568 l 656 128 q 667 54 656 76 q 709 25 679 33 l 709 0 l 412 0 l 412 25 q 453 54 441 33 q 465 128 465 75 l 465 313 l 290 313 l 290 128 q 301 54 290 75 q 343 25 313 33 l 343 0 l 45 0 l 45 25 q 87 54 75 33 q 99 128 99 75 l 99 516 q 87 590 99 568 q 45 619 76 611 l 45 644 l 343 644 l 343 619 q 301 590 313 612 q 290 516 290 569 l 290 356 z "},"о":{"ha":694,"x_min":39,"x_max":655,"o":"m 655 318 q 559 68 655 155 q 351 -19 463 -19 q 137 68 234 -19 q 39 321 39 155 q 128 566 39 472 q 345 659 217 659 q 566 567 476 659 q 655 318 655 475 m 456 304 q 433 552 456 490 q 349 614 411 614 q 266 557 292 614 q 239 364 239 501 q 261 97 239 162 q 348 31 283 31 q 431 90 407 31 q 456 304 456 149 z "},"п":{"ha":762,"x_min":50,"x_max":713,"o":"m 50 644 l 713 644 l 713 619 q 674 590 684 608 q 665 526 665 571 l 665 118 q 674 55 665 73 q 713 25 684 36 l 713 0 l 415 0 l 415 25 q 475 130 475 35 l 475 602 l 291 602 l 291 130 q 306 52 291 73 q 351 25 321 31 l 351 0 l 50 0 l 50 25 q 89 55 79 36 q 98 118 98 73 l 98 526 q 89 590 98 571 q 50 619 79 608 l 50 644 z "},"р":{"ha":694,"x_min":20,"x_max":661,"o":"m 287 644 l 287 568 q 353 636 316 614 q 436 659 391 659 q 594 566 528 659 q 661 319 661 473 q 586 71 661 161 q 420 -19 512 -19 q 347 -1 380 -19 q 287 54 313 18 l 287 -144 q 300 -242 287 -217 q 355 -267 314 -267 l 384 -267 l 384 -293 l 20 -293 l 20 -267 q 82 -243 67 -267 q 96 -144 96 -220 l 96 493 q 81 595 96 570 q 20 619 66 619 l 20 644 l 287 644 m 287 494 l 287 115 q 337 64 313 81 q 382 47 361 47 q 440 98 420 47 q 460 315 460 148 q 439 511 460 446 q 373 576 417 576 q 327 556 348 576 q 287 494 305 536 z "},"с":{"ha":607,"x_min":33,"x_max":591,"o":"m 570 163 l 591 148 q 329 -19 501 -19 q 113 79 192 -19 q 33 308 33 177 q 123 559 33 459 q 349 659 213 659 q 507 612 441 659 q 573 497 573 564 q 550 438 573 463 q 488 413 526 413 q 383 538 397 413 q 319 611 375 611 q 243 557 271 611 q 216 410 216 503 q 267 190 216 293 q 420 87 319 87 q 570 163 501 87 z "},"т":{"ha":680,"x_min":31,"x_max":650,"o":"m 31 644 l 650 644 l 650 478 l 625 478 q 597 563 622 525 q 496 602 572 602 l 436 602 l 436 120 q 458 43 436 60 q 511 25 480 27 l 511 0 l 170 0 l 170 25 q 228 50 212 30 q 244 120 244 71 l 244 602 l 165 602 q 56 478 66 602 l 31 478 l 31 644 z "},"у":{"ha":694,"x_min":23,"x_max":671,"o":"m 671 644 l 671 619 q 611 585 634 616 q 540 415 589 553 l 362 -89 q 273 -256 317 -217 q 170 -294 229 -294 q 82 -264 116 -294 q 48 -186 48 -234 q 73 -119 48 -146 q 134 -92 98 -92 q 208 -186 208 -92 q 230 -223 208 -223 q 329 -66 275 -223 l 341 -30 l 144 446 q 80 579 102 549 q 23 619 59 609 l 23 644 l 362 644 l 362 619 q 300 579 300 616 q 322 499 300 553 l 432 233 l 513 467 q 532 560 532 525 q 516 606 532 593 q 460 619 499 618 l 460 644 l 671 644 z "},"ф":{"ha":926,"x_min":41,"x_max":886,"o":"m 558 35 l 558 -168 q 570 -241 558 -221 q 618 -267 582 -262 l 618 -293 l 309 -293 l 309 -267 q 357 -242 345 -262 q 369 -168 369 -222 l 369 35 q 313 -5 341 8 q 257 -19 286 -19 q 106 67 172 -19 q 41 319 41 154 q 106 570 41 480 q 259 659 172 659 q 318 645 291 659 q 369 604 346 631 l 369 829 q 357 902 369 882 q 309 928 345 922 l 309 954 l 558 954 l 558 604 q 609 645 582 631 q 668 659 637 659 q 819 573 751 659 q 886 319 886 487 q 825 74 886 167 q 669 -19 763 -19 q 614 -5 642 -19 q 558 35 586 8 m 369 547 q 349 573 361 564 q 321 581 336 581 q 259 518 286 581 q 233 319 233 456 q 255 123 233 189 q 321 58 277 58 q 345 66 332 58 q 369 93 357 75 l 369 547 m 558 547 l 558 93 q 584 66 572 75 q 608 58 597 58 q 673 123 652 58 q 694 320 694 189 q 669 517 694 452 q 605 581 643 581 q 579 573 591 581 q 558 547 568 564 z "},"х":{"ha":767,"x_min":27,"x_max":741,"o":"m 453 382 l 645 102 q 696 39 680 52 q 741 25 713 25 l 741 0 l 382 0 l 382 25 l 397 25 q 444 52 444 25 q 412 117 444 70 l 332 236 l 256 144 q 212 63 212 90 q 277 25 212 25 l 277 0 l 27 0 l 27 25 q 99 40 71 26 q 167 102 127 55 l 308 272 l 124 536 q 70 605 87 591 q 27 619 53 619 l 27 644 l 382 644 l 382 619 q 321 591 321 619 q 344 541 321 574 l 429 418 l 513 522 q 541 581 541 555 q 484 619 541 619 l 484 644 l 711 644 l 711 619 q 642 598 667 616 q 563 515 616 581 l 453 382 z "},"ц":{"ha":767,"x_min":46,"x_max":736,"o":"m 46 0 l 46 25 q 85 44 72 28 q 98 123 98 60 l 98 521 q 85 600 98 585 q 46 619 71 616 l 46 644 l 342 644 l 342 619 q 304 601 318 616 q 290 521 290 586 l 290 109 q 301 55 290 68 q 349 43 311 43 l 415 43 q 463 55 452 43 q 473 109 473 68 l 473 521 q 460 600 473 585 q 421 619 446 616 l 421 644 l 716 644 l 716 619 q 675 595 686 614 q 664 521 664 576 l 664 130 q 679 50 664 72 q 736 25 693 28 l 736 -170 l 711 -170 q 467 0 699 0 l 46 0 z "},"ч":{"ha":715,"x_min":20,"x_max":669,"o":"m 20 644 l 315 644 l 315 619 q 274 591 285 610 q 262 515 262 572 l 262 399 q 278 341 262 361 q 324 322 294 322 q 426 342 359 322 l 426 515 q 415 591 426 572 q 373 619 404 610 l 373 644 l 669 644 l 669 619 q 628 591 639 610 q 616 515 616 572 l 616 129 q 628 53 616 72 q 669 25 639 33 l 669 0 l 373 0 l 373 25 q 415 53 404 33 q 426 129 426 73 l 426 301 q 231 257 307 257 q 123 292 174 257 q 73 415 73 326 l 73 515 q 61 591 73 572 q 20 619 50 611 l 20 644 z "},"ш":{"ha":1131,"x_min":45,"x_max":1085,"o":"m 45 644 l 350 644 l 350 619 q 304 593 317 614 q 291 516 291 572 l 291 116 q 302 57 291 71 q 350 43 313 43 l 411 43 q 458 56 447 43 q 469 116 469 70 l 469 516 q 457 592 469 571 q 411 619 444 614 l 411 644 l 720 644 l 720 619 q 674 593 688 614 q 661 516 661 572 l 661 116 q 672 57 661 71 q 720 43 684 43 l 781 43 q 827 54 815 43 q 840 116 840 65 l 840 516 q 827 593 840 571 q 781 619 814 614 l 781 644 l 1085 644 l 1085 619 q 1044 590 1055 611 q 1032 516 1032 569 l 1032 128 q 1043 54 1032 76 q 1085 25 1055 33 l 1085 0 l 45 0 l 45 25 q 87 54 75 33 q 99 128 99 75 l 99 516 q 87 590 99 568 q 45 619 76 611 l 45 644 z "},"щ":{"ha":1133,"x_min":45,"x_max":1105,"o":"m 45 0 l 45 25 q 86 54 75 33 q 98 129 98 76 l 98 517 q 87 590 98 568 q 45 619 76 611 l 45 644 l 349 644 l 349 619 q 303 593 316 614 q 290 517 290 572 l 290 116 q 301 57 290 71 q 349 43 313 43 l 410 43 q 457 56 446 43 q 469 116 469 70 l 469 517 q 456 592 469 571 q 410 619 444 614 l 410 644 l 720 644 l 720 619 q 674 593 687 614 q 661 517 661 572 l 661 116 q 672 57 661 71 q 720 43 683 43 l 781 43 q 827 54 814 43 q 839 116 839 65 l 839 517 q 826 593 839 571 q 781 619 814 614 l 781 644 l 1084 644 l 1084 619 q 1043 590 1055 611 q 1031 517 1031 568 l 1031 129 q 1046 50 1031 71 q 1105 25 1061 28 l 1105 -170 l 1080 -170 q 834 0 1061 0 l 45 0 z "},"ъ":{"ha":767,"x_min":23,"x_max":731,"o":"m 23 644 l 436 644 l 436 619 q 387 590 399 612 q 374 509 374 568 l 374 357 l 430 357 q 660 306 589 357 q 731 175 731 254 q 668 53 731 106 q 446 0 605 0 l 121 0 l 121 25 q 171 54 158 32 q 183 136 183 76 l 183 602 l 161 602 q 48 477 64 602 l 23 477 l 23 644 m 374 313 l 374 117 q 384 58 374 75 q 416 42 393 42 q 497 82 463 42 q 531 180 531 123 q 490 279 531 244 q 374 313 448 313 z "},"ы":{"ha":1019,"x_min":37,"x_max":990,"o":"m 661 644 l 990 644 l 990 619 q 921 526 921 614 l 921 117 q 990 25 921 32 l 990 0 l 661 0 l 661 25 q 730 117 730 31 l 730 526 q 661 619 730 614 l 661 644 m 37 644 l 351 644 l 351 619 q 302 591 315 612 q 290 515 290 570 l 290 357 l 391 357 q 592 303 524 357 q 661 176 661 250 q 592 50 661 99 q 391 0 524 0 l 37 0 l 37 25 q 86 53 73 32 q 98 130 98 75 l 98 515 q 86 591 98 570 q 37 619 73 612 l 37 644 m 290 313 l 290 111 q 332 42 290 42 q 423 84 385 42 q 461 188 461 126 q 423 276 461 238 q 314 315 385 315 q 290 313 304 315 z "},"ь":{"ha":696,"x_min":37,"x_max":661,"o":"m 37 644 l 351 644 l 351 619 q 302 591 315 612 q 290 515 290 570 l 290 357 l 391 357 q 592 303 524 357 q 661 176 661 250 q 592 50 661 99 q 391 0 524 0 l 37 0 l 37 25 q 86 53 73 32 q 98 130 98 75 l 98 515 q 86 591 98 570 q 37 619 73 612 l 37 644 m 290 313 l 290 111 q 332 42 290 42 q 423 84 385 42 q 461 188 461 126 q 423 276 461 238 q 314 315 385 315 q 290 313 304 315 z "},"э":{"ha":607,"x_min":27,"x_max":568,"o":"m 217 355 l 217 312 l 366 312 q 367 286 367 294 q 326 108 367 168 q 204 48 286 48 q 50 122 118 48 l 27 111 q 257 -19 93 -19 q 482 82 397 -19 q 568 336 568 182 q 485 569 568 479 q 276 659 402 659 q 146 634 227 659 q 117 629 129 629 q 83 659 90 629 l 58 659 l 50 456 l 75 456 q 237 610 121 610 q 335 555 302 610 q 368 390 368 500 q 366 355 368 378 l 217 355 z "},"ю":{"ha":1071,"x_min":30,"x_max":1032,"o":"m 290 342 l 415 342 q 499 567 416 475 q 719 659 583 659 q 946 569 859 659 q 1032 319 1032 479 q 947 75 1032 169 q 728 -19 861 -19 q 511 61 595 -19 q 415 300 427 141 l 290 300 l 290 117 q 358 25 290 32 l 358 0 l 30 0 l 30 25 q 98 117 98 31 l 98 526 q 30 619 98 614 l 30 644 l 358 644 l 358 619 q 290 526 290 614 l 290 342 m 614 342 q 621 149 614 210 q 657 56 628 87 q 723 24 686 24 q 799 68 766 24 q 833 342 833 113 q 806 562 833 506 q 723 617 779 617 q 641 560 667 617 q 614 342 614 503 z "},"я":{"ha":693,"x_min":22,"x_max":670,"o":"m 22 0 l 22 25 q 121 113 92 26 l 188 309 q 48 474 48 353 q 107 596 48 549 q 334 644 166 644 l 670 644 l 670 619 q 608 522 608 615 l 608 123 q 670 25 608 32 l 670 0 l 357 0 l 357 25 q 418 123 418 29 l 418 289 l 368 289 l 268 0 l 22 0 m 418 593 q 355 604 387 604 q 279 570 309 604 q 249 477 249 537 q 405 332 249 332 l 418 332 l 418 593 z "},"ё":{"ha":607,"x_min":32,"x_max":581,"o":"m 452 939 q 515 913 489 939 q 542 848 542 886 q 515 785 542 811 q 452 758 489 758 q 388 785 414 758 q 361 848 361 811 q 388 913 361 887 q 452 939 415 939 m 198 939 q 262 912 235 939 q 288 848 288 886 q 262 784 288 810 q 198 758 235 758 q 135 785 161 758 q 108 848 108 811 q 135 913 108 887 q 198 939 162 939 m 555 191 l 581 176 q 315 -19 491 -19 q 106 76 180 -19 q 32 309 32 170 q 120 558 32 458 q 321 659 208 659 q 504 571 427 659 q 581 342 581 483 l 216 342 q 276 156 222 227 q 405 85 331 85 q 555 191 496 85 m 216 388 l 410 388 q 411 433 411 411 q 385 571 411 528 q 318 614 358 614 q 247 562 277 614 q 216 388 216 509 z "},"ђ":{"ha":686,"x_min":20,"x_max":637,"o":"m 20 812 l 81 812 l 81 848 q 20 928 81 916 l 20 954 l 271 954 l 271 812 l 530 812 l 530 769 l 271 769 l 271 558 q 345 634 304 609 q 434 659 385 659 q 580 564 523 659 q 637 262 637 468 q 539 -141 637 12 q 289 -293 441 -293 l 289 -267 q 388 -186 359 -248 q 426 2 417 -123 q 435 164 435 128 l 435 240 l 435 429 q 418 555 435 531 q 378 580 402 580 q 327 558 354 580 q 271 494 300 537 l 271 105 q 332 25 271 38 l 332 0 l 20 0 l 20 25 q 81 105 81 38 l 81 769 l 20 769 l 20 812 z "},"ѓ":{"ha":587,"x_min":47,"x_max":577,"o":"m 487 978 l 260 741 l 203 741 l 282 978 l 487 978 m 47 644 l 577 644 l 577 477 l 551 477 q 520 571 542 541 q 419 602 498 602 l 290 602 l 290 129 q 302 48 290 63 q 341 25 315 33 l 341 0 l 47 0 l 47 25 q 89 55 79 35 q 98 129 98 75 l 98 515 q 89 590 98 570 q 47 619 79 609 l 47 644 z "},"є":{"ha":607,"x_min":39,"x_max":579,"o":"m 389 355 l 389 312 l 240 312 q 239 286 239 294 q 280 108 239 168 q 402 48 321 48 q 557 122 488 48 l 579 111 q 349 -19 513 -19 q 124 82 210 -19 q 39 336 39 182 q 121 569 39 479 q 330 659 204 659 q 460 634 379 659 q 490 629 477 629 q 523 659 517 629 l 548 659 l 557 456 l 532 456 q 369 610 486 610 q 271 555 304 610 q 239 390 239 500 q 240 355 239 378 l 389 355 z "},"ѕ":{"ha":535,"x_min":28,"x_max":514,"o":"m 36 210 l 52 210 q 148 75 86 121 q 275 28 210 28 q 343 51 313 28 q 374 111 374 73 q 345 172 374 145 q 232 237 314 199 q 75 337 122 288 q 28 462 28 386 q 87 602 28 544 q 234 659 146 659 q 340 635 280 659 q 392 619 379 619 q 448 659 425 619 l 464 659 l 475 441 l 458 441 q 370 565 431 519 q 244 611 309 611 q 183 592 208 611 q 159 545 159 572 q 283 432 159 492 q 465 319 414 369 q 514 188 514 269 q 452 43 514 104 q 290 -19 391 -19 q 162 9 237 -19 q 111 24 123 24 q 64 -19 83 24 l 52 -19 l 36 210 z "},"і":{"ha":376,"x_min":18,"x_max":357,"o":"m 195 975 q 272 944 240 975 q 304 868 304 913 q 272 792 304 824 q 196 761 241 761 q 120 792 151 761 q 89 869 89 824 q 119 943 89 911 q 195 975 150 975 m 288 644 l 288 150 q 301 52 288 76 q 357 25 315 28 l 357 0 l 18 0 l 18 25 q 82 48 66 25 q 98 150 98 71 l 98 492 q 82 596 98 572 q 18 619 66 619 l 18 644 l 288 644 z "},"ї":{"ha":376,"x_min":-30,"x_max":406,"o":"m 315 939 q 378 913 351 939 q 406 848 406 887 q 379 785 406 811 q 315 758 352 758 q 251 785 277 758 q 224 848 224 811 q 251 912 224 886 q 315 939 278 939 m 60 938 q 124 911 98 938 q 151 848 151 885 q 124 784 151 811 q 60 758 98 758 q -3 784 23 758 q -30 848 -30 811 q -3 912 -30 886 q 60 938 23 938 m 289 644 l 289 150 q 302 52 289 76 q 359 25 315 28 l 359 0 l 18 0 l 18 25 q 83 48 67 25 q 99 150 99 71 l 99 492 q 83 596 99 572 q 18 619 68 619 l 18 644 l 289 644 z "},"ј":{"ha":376,"x_min":-28,"x_max":298,"o":"m 189 975 q 266 944 235 975 q 298 868 298 913 q 266 792 298 824 q 191 761 235 761 q 114 793 146 761 q 83 869 83 825 q 113 943 83 911 q 189 975 144 975 m 290 644 l 290 9 q 277 -159 290 -106 q 215 -254 264 -213 q 94 -294 165 -294 q 5 -270 39 -294 q -28 -211 -28 -246 q -9 -167 -28 -186 q 39 -148 9 -148 q 107 -206 82 -148 q 145 -245 124 -245 q 170 -235 161 -245 q 178 -205 178 -225 q 139 -92 178 -180 q 100 94 100 -2 l 100 493 q 86 593 100 568 q 32 619 73 619 l 18 619 l 18 644 l 290 644 z "},"љ":{"ha":1071,"x_min":9,"x_max":1037,"o":"m 727 644 l 727 619 q 678 591 690 612 q 666 515 666 569 l 666 357 l 766 357 q 968 303 900 357 q 1037 176 1037 250 q 968 49 1037 98 q 766 0 900 0 l 412 0 l 412 25 q 461 54 449 32 q 474 130 474 75 l 474 600 l 288 600 l 288 333 q 250 73 288 151 q 129 -6 213 -6 q 45 23 81 -6 q 9 100 9 52 q 34 168 9 142 q 95 195 58 195 q 150 170 131 195 q 168 115 168 146 l 168 87 q 182 64 168 64 q 229 133 214 64 q 245 341 245 203 l 245 497 q 230 593 245 569 q 171 619 214 616 l 171 644 l 727 644 m 666 313 l 666 111 q 708 42 666 42 q 799 84 760 42 q 837 189 837 126 q 801 275 837 235 q 693 314 764 314 q 666 313 682 314 z "},"њ":{"ha":1078,"x_min":37,"x_max":1042,"o":"m 480 357 l 480 515 q 468 591 480 570 q 418 619 455 613 l 418 644 l 733 644 l 733 619 q 684 591 696 612 q 671 515 671 569 l 671 357 l 772 357 q 976 302 910 357 q 1042 176 1042 248 q 978 52 1042 103 q 772 0 913 0 l 418 0 l 418 25 q 468 54 455 32 q 480 130 480 75 l 480 313 l 291 313 l 291 125 q 301 54 291 74 q 340 25 311 34 l 340 0 l 37 0 l 37 25 q 98 125 98 30 l 98 519 q 37 619 98 614 l 37 644 l 340 644 l 340 619 q 301 590 311 610 q 291 519 291 570 l 291 357 l 480 357 m 671 313 l 671 112 q 715 42 671 42 q 804 84 764 42 q 843 188 843 125 q 807 274 843 234 q 700 314 771 314 q 671 313 690 314 z "},"ћ":{"ha":693,"x_min":20,"x_max":677,"o":"m 271 558 q 357 634 311 609 q 456 659 403 659 q 625 431 625 659 l 625 113 q 635 56 625 77 q 677 25 645 35 l 677 0 l 383 0 l 383 25 q 435 113 435 39 l 435 451 q 374 570 435 570 q 323 550 349 570 q 271 489 298 530 l 271 105 q 332 25 271 38 l 332 0 l 20 0 l 20 25 q 81 105 81 38 l 81 769 l 20 769 l 20 812 l 81 812 l 81 848 q 20 928 81 916 l 20 954 l 271 954 l 271 812 l 530 812 l 530 769 l 271 769 l 271 558 z "},"ќ":{"ha":778,"x_min":35,"x_max":754,"o":"m 555 978 l 328 741 l 271 741 l 351 978 l 555 978 m 35 644 l 351 644 l 351 619 q 288 515 288 613 l 288 357 q 393 382 362 357 q 457 505 424 407 q 531 624 488 597 q 617 650 574 650 q 708 620 672 650 q 745 541 745 589 q 723 476 745 506 q 663 447 702 447 q 587 535 591 447 q 581 576 585 567 q 563 585 576 585 q 530 564 544 585 q 490 472 515 544 q 422 351 458 380 q 505 323 462 347 q 591 221 549 300 q 600 207 595 214 l 657 108 q 754 25 703 30 l 754 0 l 517 0 l 334 315 l 288 315 l 288 129 q 306 46 288 64 q 351 25 324 28 l 351 0 l 35 0 l 35 25 q 98 129 98 31 l 98 515 q 35 619 98 613 l 35 644 z "},"ў":{"ha":694,"x_min":23,"x_max":671,"o":"m 357 749 q 208 782 275 749 q 141 874 141 814 q 201 940 141 940 q 283 852 255 940 q 368 791 303 791 q 452 852 432 791 q 534 940 480 940 q 594 874 594 940 q 530 783 594 817 q 357 749 467 749 m 671 644 l 671 619 q 610 584 633 616 q 540 415 587 551 l 362 -89 q 272 -256 317 -218 q 170 -294 228 -294 q 81 -263 115 -294 q 48 -186 48 -232 q 73 -119 48 -146 q 134 -92 98 -92 q 208 -186 208 -92 q 231 -223 208 -223 q 329 -66 275 -223 l 341 -30 l 144 446 q 80 579 101 549 q 23 619 58 609 l 23 644 l 362 644 l 362 619 q 300 579 300 618 q 322 499 300 553 l 432 233 l 513 467 q 532 559 532 524 q 516 606 532 593 q 460 619 499 618 l 460 644 l 671 644 z "},"џ":{"ha":745,"x_min":47,"x_max":699,"o":"m 385 -170 l 360 -170 q 317 -40 360 -81 q 205 0 275 0 l 47 0 l 47 25 q 86 44 73 28 q 99 123 99 60 l 99 521 q 85 600 99 585 q 47 619 72 616 l 47 644 l 342 644 l 342 619 q 305 601 319 616 q 291 521 291 586 l 291 109 q 301 55 291 68 q 349 43 312 43 l 397 43 q 445 55 434 43 q 456 109 456 68 l 456 521 q 445 594 456 575 q 404 619 434 614 l 404 644 l 699 644 l 699 619 q 657 595 668 614 q 646 521 646 576 l 646 123 q 657 49 646 68 q 699 25 668 31 l 699 0 l 539 0 q 431 -38 477 0 q 385 -151 385 -75 l 385 -170 z "},"Ґ":{"ha":693,"x_min":17,"x_max":675,"o":"m 17 954 l 457 954 q 548 967 516 954 q 607 1024 581 981 q 649 1143 633 1067 l 675 1143 l 675 895 l 359 895 l 359 141 q 386 46 359 67 q 489 25 413 25 l 489 0 l 17 0 l 17 25 l 31 25 q 98 37 74 25 q 130 71 121 48 q 139 155 139 94 l 139 810 q 115 904 139 881 q 17 928 91 928 l 17 954 z "},"ґ":{"ha":498,"x_min":31,"x_max":488,"o":"m 31 644 l 328 644 q 399 653 376 644 q 441 690 423 661 q 463 768 458 718 l 488 768 l 488 600 l 290 600 l 290 123 q 305 48 290 69 q 360 25 321 27 l 360 0 l 31 0 l 31 25 q 86 50 74 28 q 99 137 99 71 l 99 498 q 87 594 99 572 q 31 619 75 615 l 31 644 z "},"–":{"ha":694,"x_min":-10,"x_max":705,"o":"m 705 367 l 705 281 l -10 281 l -10 367 l 705 367 z "},"—":{"ha":1389,"x_min":-10,"x_max":1399,"o":"m 1399 367 l 1399 281 l -10 281 l -10 367 l 1399 367 z "},"‘":{"ha":376,"x_min":61,"x_max":317,"o":"m 294 968 l 294 939 q 188 860 231 916 q 144 745 144 804 q 147 723 144 730 q 157 716 151 716 l 167 721 q 220 737 191 737 q 290 703 262 737 q 317 629 317 669 q 284 548 317 583 q 200 513 251 513 q 100 562 139 513 q 61 682 61 612 q 121 858 61 781 q 294 968 182 936 z "},"’":{"ha":376,"x_min":62,"x_max":319,"o":"m 86 513 l 86 543 q 192 622 149 566 q 236 737 236 677 q 233 758 236 751 q 222 765 229 765 l 212 760 q 160 745 189 745 q 90 780 117 745 q 62 854 62 814 q 95 934 62 899 q 180 970 128 970 q 280 919 242 970 q 319 801 319 869 q 254 618 319 691 q 86 513 189 545 z "},"‚":{"ha":463,"x_min":103,"x_max":360,"o":"m 127 -243 l 127 -214 q 277 -14 277 -149 q 262 6 277 6 q 251 3 258 6 q 203 -9 227 -9 q 131 25 158 -9 q 103 96 103 58 q 135 172 103 136 q 219 208 167 208 q 319 162 279 208 q 360 39 360 115 q 297 -138 360 -66 q 127 -243 235 -211 z "},"“":{"ha":694,"x_min":56,"x_max":636,"o":"m 288 968 l 288 939 q 182 860 226 916 q 138 745 138 804 q 142 723 138 730 q 152 716 145 716 l 161 721 q 214 737 186 737 q 284 703 256 737 q 312 629 312 669 q 279 548 312 583 q 195 513 245 513 q 95 562 134 513 q 56 682 56 612 q 116 858 56 781 q 288 968 176 936 m 612 968 l 612 939 q 507 860 551 916 q 463 744 463 804 q 466 723 463 730 q 477 716 470 716 l 486 721 q 539 737 511 737 q 609 702 583 737 q 636 629 636 667 q 603 548 636 583 q 519 513 570 513 q 419 563 458 513 q 380 682 380 612 q 445 864 380 791 q 612 968 510 937 z "},"”":{"ha":694,"x_min":58,"x_max":638,"o":"m 406 513 l 406 543 q 512 621 468 565 q 556 737 556 677 q 553 758 556 751 q 542 765 549 765 l 532 760 q 479 745 509 745 q 409 780 436 745 q 382 854 382 814 q 415 934 382 899 q 500 970 448 970 q 598 921 559 970 q 638 800 638 872 q 578 624 638 701 q 406 513 519 547 m 81 513 l 81 543 q 188 622 144 566 q 231 737 231 677 q 228 758 231 751 q 217 765 224 765 l 208 760 q 155 745 184 745 q 85 780 112 745 q 58 854 58 814 q 91 934 58 899 q 175 970 123 970 q 276 919 237 970 q 314 801 314 869 q 249 618 314 691 q 81 513 184 545 z "},"„":{"ha":694,"x_min":58,"x_max":638,"o":"m 81 -248 l 81 -218 q 187 -139 143 -195 q 231 -23 231 -83 q 228 -2 231 -9 q 218 5 224 5 l 208 -1 q 155 -19 183 -19 q 85 16 112 -19 q 58 91 58 52 q 91 172 58 136 q 175 208 123 208 q 276 157 237 208 q 314 39 314 107 q 250 -142 314 -69 q 81 -248 185 -216 m 406 -248 l 406 -218 q 512 -140 467 -196 q 556 -23 556 -83 q 553 -2 556 -9 q 543 5 549 5 l 532 -1 q 479 -19 508 -19 q 410 16 437 -19 q 382 91 382 52 q 415 172 382 136 q 500 208 448 208 q 600 158 561 208 q 638 39 638 108 q 573 -143 638 -71 q 406 -248 509 -216 z "},"†":{"ha":694,"x_min":62,"x_max":635,"o":"m 362 604 q 378 524 368 545 q 437 437 388 503 q 366 -102 370 259 q 362 -272 365 -256 l 333 -272 q 310 213 330 75 q 258 437 291 351 q 311 513 297 484 q 333 604 324 541 q 222 567 282 601 q 144 539 172 539 q 85 562 109 539 q 62 618 62 585 q 86 674 62 652 q 144 696 109 696 q 229 665 172 696 q 333 633 281 636 q 326 688 332 667 q 293 768 320 708 q 263 877 263 832 q 287 947 263 918 q 347 975 310 975 q 409 946 385 975 q 433 880 433 917 q 397 758 433 836 q 362 633 366 686 q 464 664 417 639 q 553 698 525 698 q 612 674 590 698 q 635 620 635 650 q 611 564 635 587 q 556 541 588 541 q 477 568 524 541 q 362 604 427 596 z "},"‡":{"ha":694,"x_min":67,"x_max":626,"o":"m 361 665 q 436 539 361 602 q 382 473 403 512 q 361 355 361 433 q 378 237 361 278 q 436 161 394 197 q 361 38 366 96 q 467 68 406 39 q 549 94 521 94 q 602 75 579 94 q 625 24 625 56 q 602 -27 625 -9 q 555 -46 580 -46 q 448 -12 524 -46 q 361 10 401 9 q 398 -107 368 -36 q 424 -195 424 -166 q 402 -249 424 -224 q 345 -273 380 -273 q 289 -248 309 -273 q 269 -195 269 -224 q 299 -96 269 -162 q 334 10 324 -43 q 236 -17 290 9 q 144 -45 176 -45 q 87 -25 108 -45 q 67 24 67 -5 q 90 74 67 54 q 141 94 113 94 q 232 67 176 94 q 334 38 293 38 q 257 161 327 107 q 316 239 300 197 q 332 358 332 280 q 317 459 332 425 q 257 539 302 494 q 334 665 329 600 q 233 636 292 665 q 145 607 170 607 q 90 627 112 607 q 68 677 68 648 q 89 727 68 707 q 140 747 110 747 q 246 713 174 747 q 321 690 296 690 l 334 690 q 295 805 330 723 q 270 895 270 862 q 291 951 270 927 q 347 975 313 975 q 404 949 384 975 q 424 897 424 923 q 391 792 424 867 q 361 690 366 732 q 451 715 404 692 q 552 747 518 747 q 603 728 581 747 q 626 677 626 709 q 603 626 626 646 q 555 607 580 607 q 471 631 527 607 q 361 665 396 663 z "},"•":{"ha":492,"x_min":45,"x_max":446,"o":"m 446 477 q 387 335 446 394 q 245 277 328 277 q 103 335 162 277 q 45 477 45 394 q 104 618 45 559 q 245 677 163 677 q 388 617 331 677 q 446 477 446 557 z "},"…":{"ha":1389,"x_min":121,"x_max":1267,"o":"m 233 209 q 313 176 280 209 q 347 95 347 142 q 313 15 347 48 q 233 -19 280 -19 q 154 15 187 -19 q 121 95 121 48 q 154 176 121 142 q 233 209 187 209 m 696 208 q 774 176 741 208 q 808 95 808 143 q 775 15 808 48 q 696 -19 742 -19 q 616 14 650 -19 q 583 95 583 47 q 616 175 583 142 q 696 208 650 208 m 1156 208 q 1235 175 1202 208 q 1267 96 1267 142 q 1235 17 1267 50 q 1156 -16 1202 -16 q 1077 17 1110 -16 q 1044 96 1044 50 q 1078 176 1044 144 q 1156 208 1111 208 z "},"‰":{"ha":1504,"x_min":25,"x_max":1480,"o":"m 857 976 l 239 -38 l 153 -38 l 770 976 l 857 976 m 404 724 q 354 547 404 618 q 214 476 304 476 q 77 546 129 476 q 25 723 25 615 q 78 900 25 831 q 215 970 131 970 q 351 904 298 970 q 404 724 404 838 m 276 757 q 265 914 276 881 q 216 947 254 947 q 163 905 174 947 q 153 676 153 863 q 170 521 153 545 q 216 497 186 497 q 266 533 257 497 q 276 757 275 568 m 987 239 q 935 60 987 128 q 798 -8 883 -8 q 660 61 712 -8 q 608 239 608 130 q 661 415 608 346 q 798 484 713 484 q 935 418 882 484 q 987 239 987 352 m 859 273 q 848 430 859 397 q 799 462 838 462 q 747 421 758 462 q 736 195 736 380 q 753 36 736 59 q 800 13 770 13 q 850 51 840 13 q 859 273 859 88 m 1480 239 q 1428 60 1480 128 q 1289 -8 1375 -8 q 1148 65 1196 -8 q 1101 238 1101 138 q 1154 415 1101 346 q 1290 484 1206 484 q 1427 418 1374 484 q 1480 239 1480 352 m 1351 271 q 1340 430 1351 397 q 1291 462 1330 462 q 1239 421 1250 462 q 1229 200 1229 381 q 1244 38 1229 62 q 1291 13 1260 13 q 1341 51 1332 13 q 1351 271 1351 88 z "},"‹":{"ha":463,"x_min":60,"x_max":403,"o":"m 403 666 l 240 354 l 403 39 l 349 39 l 60 354 l 349 666 l 403 666 z "},"›":{"ha":463,"x_min":61,"x_max":401,"o":"m 61 666 l 112 666 l 401 354 l 112 39 l 61 39 l 223 354 l 61 666 z "},"№":{"ha":1461,"x_min":22,"x_max":1422,"o":"m 136 954 l 490 954 l 807 442 l 807 718 q 853 897 807 835 q 994 960 900 960 q 1097 923 1052 960 q 1142 826 1142 887 q 1118 760 1142 783 q 1061 737 1094 737 q 977 819 989 737 q 936 880 968 880 q 884 838 901 880 q 866 709 866 795 l 866 -19 l 840 -19 l 364 754 l 364 272 q 345 100 364 155 q 278 13 326 44 q 178 -19 230 -19 q 69 19 115 -19 q 22 116 22 58 q 48 180 22 157 q 106 204 73 204 q 187 123 173 204 q 232 66 198 66 q 288 115 270 66 q 306 279 306 164 l 306 843 q 240 909 274 890 q 136 928 205 928 l 136 954 m 987 444 q 1053 609 987 545 q 1207 673 1118 673 q 1359 609 1296 673 q 1422 445 1422 544 q 1360 282 1422 349 q 1206 215 1298 215 q 1048 281 1109 215 q 987 444 987 348 m 1149 439 q 1162 282 1149 313 q 1205 251 1174 251 q 1248 288 1237 251 q 1259 448 1259 325 q 1244 610 1259 581 q 1204 638 1229 638 q 1161 604 1173 638 q 1149 439 1149 569 m 999 130 l 1406 130 l 1406 0 l 999 0 l 999 130 z "},"™":{"ha":1381,"x_min":8,"x_max":1370,"o":"m 8 954 l 535 954 l 535 800 l 511 800 q 483 885 509 851 q 380 919 456 919 l 354 919 l 354 520 q 368 446 354 463 q 424 430 381 430 l 424 406 l 116 406 l 116 430 q 174 443 161 431 q 186 520 186 454 l 186 919 l 162 919 q 31 800 37 919 l 8 800 l 8 954 m 573 954 l 823 954 l 979 619 l 1135 954 l 1370 954 l 1370 928 q 1314 912 1326 928 q 1301 838 1301 895 l 1301 517 q 1315 449 1301 465 q 1370 430 1328 432 l 1370 406 l 1057 406 l 1057 430 q 1121 446 1107 431 q 1135 517 1135 462 l 1135 860 l 918 406 l 901 406 l 686 860 l 686 520 q 699 447 686 464 q 763 430 713 431 l 763 406 l 573 406 l 573 430 q 634 447 621 432 q 647 520 647 462 l 647 838 q 633 913 647 898 q 573 928 618 928 l 573 954 z "}}}
